<?xml version="1.0" encoding="utf-8"?>
<!-- Generator: Adobe Illustrator 28.2.0, SVG Export Plug-In . SVG Version: 6.00 Build 0)  -->
<svg version="1.1" id="Layer_1" xmlns="http://www.w3.org/2000/svg" xmlns:xlink="http://www.w3.org/1999/xlink" x="0px" y="0px"
	 viewBox="0 0 288 108" style="enable-background:new 0 0 288 108;" xml:space="preserve">
<style type="text/css">
	.st0{fill:#92864F;}
	.st1{fill:#FECD27;}
	.st2{fill:#FFFFFF;}
	.st3{fill:#DBB740;}
</style>
<path class="st0" d="M93.2,29.9L81.5,30l-0.4,1.2c-0.1,0.3-0.2,0.6-0.3,0.9c-0.6,1.9-0.6,1.9-4,2.6l-1.2,0.3l-0.3,1.6
	c-1.1-3-7.4-6.2-7.4-6.2s0.1,0,0.1,0.1c-1.7-0.8-3.6-1.3-5.8-1.3c-2.8,0-5.3,0.7-7.5,2c-1.4,0.8-2.6,1.9-3.5,3.1l-3.3-4.3L36.4,30
	L36,31.2c-0.1,0.3-0.2,0.6-0.3,0.9c-0.6,1.9-0.6,1.9-4,2.6l-1.2,0.3l-1.7,10.2l0,0l0,0l3.2,3.2l-4,26.5l0,0v0h0l3.5,3.9l12.5,0
	l1.6-9.7c0.2,0.7,0.6,1.4,1,2.1c0.2,0.3,1.6,3.2,5.1,5.5c0.9,0.6,1.8,1,3.1,1.4c1,0.3,2.1,0.6,3.4,0.7c1.3,0.1,3.8,0.1,6.8-0.7
	c5.6-1.5,7.2-6,7.6-6.8c0.8-1.8,1.7-7.9,1.7-7.9L76,51.4l0.4-3l0.7,0.7l-3.9,25.8h0l4,4H90l6.5-44.1L93.2,29.9z"/>
<path class="st1" d="M38.2,32.5c0,0.1-0.1,0.2-0.1,0.4c-0.9,2.7-1.4,3.2-5.3,4.1l-0.9,5.7l3.7,0L31,72.4h8l6.1-40L38.2,32.5z"/>
<path class="st2" d="M40.3,73.8H29.4L33.8,44l-3.7,0l1.4-8.3l0.5-0.1c3.9-0.9,4-1,4.8-3.3c0.1-0.3,0.2-0.5,0.3-0.8l0.2-0.5l9.7-0.1
	L40.3,73.8L40.3,73.8z M31,72.4h8l6.1-40l-7,0.1c0,0.1-0.1,0.2-0.1,0.4c-0.9,2.7-1.4,3.2-5.3,4.1l-0.9,5.7l3.7,0L31,72.4L31,72.4z"
	/>
<path class="st2" d="M56.6,74.5c-2.3,0-4.2-0.3-5.6-0.9c-1.5-0.6-2.7-1.6-3.4-3c-0.7-1.3-1.2-2.7-1.4-4.1c-0.2-1.4,0-3.6,0.4-6.6
	l2.1-14.4c0.6-3.8,1.3-6.8,2.2-8.7c0.9-2,2.4-3.6,4.4-4.9c2-1.2,4.3-1.8,6.9-1.8c2.1,0,4,0.4,5.6,1.3c1.6,0.9,2.7,1.9,3.4,3.2
	c0.7,1.2,1,2.6,1.1,4.2c0.1,1.5-0.1,3.8-0.6,7l-2,13.8c-0.5,3.2-1,5.5-1.5,7c-0.5,1.5-1.4,2.9-2.6,4.2c-1.2,1.3-2.6,2.3-4.1,2.9
	C60,74.2,58.4,74.5,56.6,74.5L56.6,74.5z M62.3,31.6c-2.3,0-4.4,0.5-6.2,1.6c-1.8,1.1-3.1,2.5-3.9,4.2c-0.8,1.8-1.5,4.6-2.1,8.3
	L48,60.2c-0.4,2.8-0.6,4.9-0.4,6.2c0.2,1.2,0.6,2.4,1.2,3.6c0.6,1.1,1.5,1.8,2.7,2.4c1.3,0.5,3,0.8,5.1,0.8c1.6,0,3.1-0.3,4.4-0.8
	c1.3-0.5,2.5-1.3,3.6-2.5c1.1-1.2,1.9-2.4,2.3-3.8c0.5-1.4,1-3.6,1.4-6.7l2-13.8c0.5-3.1,0.7-5.3,0.6-6.7c-0.1-1.3-0.4-2.5-0.9-3.5
	c-0.5-1-1.5-1.9-2.9-2.6C65.8,32,64.2,31.6,62.3,31.6L62.3,31.6z"/>
<path class="st1" d="M71,38.9c-0.1-1.3-0.4-2.5-0.9-3.5c-0.5-1-1.5-1.9-2.9-2.6c-1.4-0.7-3-1.1-4.9-1.1c-2.3,0-4.4,0.5-6.2,1.6
	c-1.8,1.1-3.1,2.5-3.9,4.2c-0.8,1.8-1.5,4.6-2.1,8.3L48,60.2c-0.4,2.8-0.6,4.9-0.4,6.2c0.2,1.2,0.6,2.4,1.2,3.6
	c0.6,1.1,1.5,1.8,2.7,2.4c1.3,0.5,3,0.8,5.1,0.8c1.6,0,3.1-0.3,4.4-0.8c1.3-0.5,2.5-1.3,3.6-2.5c1.1-1.2,1.9-2.4,2.3-3.8
	c0.5-1.4,1-3.6,1.4-6.7l2-13.8C70.9,42.5,71.1,40.3,71,38.9z M63.8,38.2c0,0.4-0.1,1.3-0.6,4.3L59.9,63c-0.5,2.8-0.7,3.7-0.8,4.1
	c-0.6,1.9-1.7,2.1-2.3,2.1c-0.6,0-1.1-0.2-1.5-0.6c-0.5-0.5-0.7-1.1-0.7-1.9c0-0.4,0.1-1.3,0.6-4.6l3.3-20.2c0.5-3,0.7-3.9,0.8-4.3
	c0.6-1.9,1.7-2.1,2.3-2.1c0.6,0,1.1,0.2,1.5,0.6C63.9,36.9,63.9,37.8,63.8,38.2z"/>
<path class="st2" d="M63.2,36.1c-0.4-0.4-0.9-0.6-1.5-0.6c-0.6,0-1.8,0.3-2.3,2.1c-0.1,0.4-0.4,1.3-0.8,4.3l-3.3,20.2
	c-0.5,3.3-0.6,4.2-0.6,4.6c0,0.8,0.2,1.5,0.7,1.9c0.4,0.4,0.9,0.6,1.5,0.6c0.6,0,1.8-0.3,2.3-2.1c0.1-0.4,0.3-1.3,0.8-4.1l3.4-20.5
	c0.5-3,0.6-3.9,0.6-4.3C63.9,37.8,63.9,36.9,63.2,36.1z M61.9,42.3l-3.4,20.5c-0.3,2-0.6,3.4-0.8,3.9c-0.1,0.3-0.3,1.1-1,1.1
	c-0.2,0-0.3-0.1-0.5-0.2c-0.2-0.2-0.3-0.5-0.3-0.9c0-0.5,0.2-2,0.6-4.4l3.3-20.2c0.4-2.2,0.6-3.5,0.8-4.1c0.1-0.3,0.3-1.1,1-1.1
	c0.2,0,0.3,0.1,0.5,0.2c0.2,0.2,0.3,0.5,0.3,1C62.4,38.7,62.2,40.1,61.9,42.3z"/>
<path class="st0" d="M259.7,49.8c-0.1-2.6-0.9-4.4-2.5-6.8c-1.6-2.4-4-5.4-7.6-5.5c0,0-12.6,0-15.9,0l0-2.7l-3.3-4.7h-11.3v13.8
	c-0.1-0.1-0.3-0.2-0.4-0.3c-0.8-2.5-2.9-5.5-6.6-6.2l-0.2,0h-19v7.3c-0.5-0.6,0.2-0.3-1.2-2.1c-1.4-1.8-4.2-5.2-7.7-5.2h-29.3l0,7.6
	c-0.7-1.7-1.8-3.2-3.2-4.5c-2.7-2.4-6.5-3.6-11.2-3.6c-4.4,0-8,1.2-10.8,3.5v-5.8l-3.3-4.7l-11.6,0v7.4l-7.2,0l-0.1,0l-0.1,0
	c-5.7,0.6-9.8,5.8-9.8,12.9c0,6.2,2.4,10.1,3.9,12c1.2,1.5,4.9,4.7,9.1,5.4l0.2,0h18.9v-6.1c0.7,1.4,1.6,2.1,2.9,3.1
	c2.5,2.1,6.5,3,11.2,3c4.6,0,7-0.8,10.4-2.9c0.6-0.4,1.3-1.3,1.3-1.3l4.2,4.2l9.2,0l0-3.4l3.5,3.4l9.6,0.1v-3.5l3.7,3.5h9.1
	c0,0,0-4.2,0.1-4.1c1.6,2.9,4.2,4.1,7.4,4.1h18.1l0-3.2l3.4,3.2l8.6,0l0-3.1l3.2,3l10.3,0l0.1-3.4l3.4,3.4l10.4,0L259.7,49.8
	L259.7,49.8z M114.6,54.5h-3.5c-0.1,0-0.2,0-0.3,0c0.1-0.6,0.3-1.3,0.6-1.8c0.7-1.3,1.8-2,3.2-2.1V54.5z M142.1,53.3
	c-0.4,0.4-1,0.9-2.5,0.9c-0.2,0-0.4,0-0.5,0c0,0,0-0.1,0-0.1c0-1.3,0.3-2.2,1-2.9c0.4-0.4,1-0.9,2.5-0.9c0.2,0,0.3,0,0.5,0
	c0,0,0,0,0,0C143,51.7,142.7,52.7,142.1,53.3z"/>
<path d="M117.5,32.7v7.4l-10,0c-4.9,0.5-7.1,5.5-7.2,10.2c-0.1,4.9,2.1,10.5,7.3,11.2l15.9,0V32.7L117.5,32.7z M117.5,57.3h-5.8h0
	c-1.7,0-3.1-0.8-3.9-2.3c-1.3-2.3-1.2-5.8,0.1-8.1c0.9-1.6,2.3-2.4,3.8-2.4l5.8,0V57.3z"/>
<path class="st2" d="M124.1,62.2h-16.6c-5.6-0.8-8-6.7-7.9-11.9c0.1-5,2.6-10.3,7.9-10.9l9.4,0V32l7.3,0V62.2L124.1,62.2z
	 M117.5,32.7v7.4l-10,0c-4.9,0.5-7.1,5.5-7.2,10.2c-0.1,4.9,2.1,10.5,7.3,11.2l15.9,0V32.7L117.5,32.7L117.5,32.7z M111.7,57.3
	c-1.7,0-3.1-0.8-3.9-2.3c-1.3-2.3-1.2-5.8,0.1-8.1c0.9-1.6,2.3-2.4,3.8-2.4l5.8,0v12.9H111.7L111.7,57.3L111.7,57.3z M116.8,45.2
	l-5.1,0c-1.7,0-2.7,1.1-3.2,2.1c-1.2,2.1-1.3,5.4-0.1,7.4c0.5,0.9,1.5,2,3.3,2c0,0,0,0,0,0h5.1V45.2L116.8,45.2z"/>
<rect x="222.2" y="75.6" class="st0" width="3.2" height="3.1"/>
<polygon class="st3" points="94.5,78.6 100.6,78.6 108.8,70.6 102.6,70.6 "/>
<polygon class="st3" points="106,78.6 112.1,78.6 120.3,70.6 114.2,70.6 "/>
<polygon class="st3" points="117.5,78.6 123.7,78.6 131.8,70.6 125.7,70.6 "/>
<polygon class="st3" points="129.1,78.6 135.2,78.6 143.4,70.6 137.2,70.6 "/>
<polygon class="st3" points="140.6,78.6 146.7,78.6 154.9,70.6 148.8,70.6 "/>
<polygon class="st3" points="152.1,78.6 158.2,78.6 166.4,70.6 160.3,70.6 "/>
<polygon class="st3" points="163.7,78.6 169.8,78.6 177.9,70.6 171.8,70.6 "/>
<polygon class="st3" points="175.2,78.6 181.3,78.6 189.5,70.6 183.4,70.6 "/>
<polygon class="st3" points="186.7,78.6 192.8,78.6 201,70.6 194.9,70.6 "/>
<polygon class="st3" points="198.2,78.6 204.4,78.6 212.5,70.6 206.4,70.6 "/>
<polygon class="st3" points="209.8,78.6 215.9,78.6 224.1,70.6 217.9,70.6 "/>
<g>
	<path class="st0" d="M234.6,78.5h-3.5c-1.3,0-2.3-0.4-3-1.1c-0.7-0.7-1.1-1.7-1.1-2.9c0-1.1,0.3-2.1,1-2.8c0.8-0.8,1.8-1.2,3.1-1.2
		h3.4v1.8h-3.1c-0.6,0-1.1,0.2-1.5,0.7c-0.4,0.5-0.6,1-0.6,1.6c0,0.6,0.2,1.1,0.6,1.5c0.4,0.4,0.9,0.6,1.5,0.6h3.2V78.5z"/>
</g>
<g>
	<path class="st0" d="M246,74.3c0,1.4-0.5,2.5-1.4,3.2c-0.8,0.7-2,1-3.4,1c-1.4,0-2.6-0.3-3.4-0.9c-0.9-0.7-1.4-1.8-1.4-3.3
		c0-1.3,0.5-2.2,1.5-3c0.9-0.6,2-1,3.3-1c1.4,0,2.6,0.3,3.4,1C245.5,72.1,246,73.1,246,74.3z M243.5,74.3c0-0.6-0.2-1.2-0.6-1.6
		c-0.4-0.4-1-0.7-1.7-0.7c-0.7,0-1.2,0.2-1.6,0.7c-0.4,0.4-0.6,1-0.6,1.7c0,0.8,0.2,1.4,0.7,1.9c0.4,0.5,1,0.7,1.7,0.7
		c0.8,0,1.4-0.2,1.7-0.7C243.3,75.8,243.5,75.1,243.5,74.3z"/>
</g>
<g>
	<path class="st0" d="M259.9,78.5h-2.1v-5c0-0.2,0-0.3-0.1-0.5c0-0.1-0.1-0.2-0.3-0.4c-0.1-0.1-0.3-0.2-0.4-0.3
		c-0.1-0.1-0.3-0.1-0.4-0.1H255v6.2h-2.2v-6.2h-2.5v6.2H248v-8h8.8c0.6,0,1,0,1.3,0.1c0.3,0.1,0.6,0.3,0.9,0.6
		c0.2,0.3,0.4,0.5,0.6,0.8c0.1,0.2,0.2,0.5,0.2,0.8V78.5z"/>
</g>
<path d="M153,50.5c0-3.4-1.1-6.1-3.3-8c-2.2-1.9-5.3-2.9-9.4-2.9c-3.8,0-6.9,1-9.2,3c-2.3,2-3.5,4.6-3.5,7.8c0,3.3,1.1,6,3.3,8
	c2.2,2,5.4,3,9.4,3c3.9,0,7-1,9.3-2.9C151.9,56.6,153,53.9,153,50.5z M144.4,55c-1,1.2-2.4,1.8-4.1,1.8c-1.9,0-3.3-0.6-4.3-1.7
	c-0.9-1.1-1.4-2.7-1.4-4.7c0-1.9,0.5-3.5,1.5-4.6c1-1.1,2.4-1.7,4.1-1.7c1.9,0,3.4,0.6,4.3,1.7c0.9,1.1,1.3,2.6,1.3,4.7
	C145.9,52.3,145.3,53.9,144.4,55z"/>
<path class="st2" d="M140.3,62.2c-4.2,0-7.5-1.1-9.8-3.1c-2.4-2.1-3.6-5-3.6-8.5c0-3.4,1.2-6.3,3.7-8.4c2.4-2.1,5.7-3.2,9.7-3.2
	c4.2,0,7.5,1,9.8,3.1c2.3,2,3.5,4.9,3.5,8.5c0,3.6-1.2,6.5-3.6,8.5C147.7,61.1,144.4,62.2,140.3,62.2L140.3,62.2z M140.3,39.7
	c-3.8,0-6.9,1-9.2,3c-2.3,2-3.5,4.6-3.5,7.8c0,3.3,1.1,6,3.3,8c2.2,2,5.4,3,9.4,3c3.9,0,7-1,9.3-2.9c2.2-1.9,3.4-4.6,3.4-8
	c0-3.4-1.1-6.1-3.3-8C147.5,40.6,144.4,39.7,140.3,39.7L140.3,39.7z M140.2,56.8c-1.9,0-3.3-0.6-4.3-1.7c-0.9-1.1-1.4-2.7-1.4-4.7
	c0-1.9,0.5-3.5,1.5-4.6c1-1.1,2.4-1.7,4.1-1.7c1.9,0,3.4,0.6,4.3,1.7c0.9,1.1,1.3,2.6,1.3,4.7c0,2-0.5,3.5-1.5,4.7
	C143.4,56.2,142,56.8,140.2,56.8L140.2,56.8z M140.2,44.7c-1.5,0-2.7,0.5-3.6,1.5c-0.9,1-1.4,2.4-1.4,4.2c0,1.9,0.4,3.3,1.2,4.3
	c0.8,1,2.1,1.4,3.7,1.4c1.6,0,2.7-0.5,3.6-1.5c0.9-1,1.3-2.4,1.3-4.2c0-1.9-0.4-3.3-1.2-4.2C143.2,45.2,141.9,44.7,140.2,44.7
	L140.2,44.7z"/>
<path d="M183.8,48.2v13.3h4.9V45.1c0-2.8-2-5-4.6-5h-26.5l0,21.3l5.8,0l0-16.7h7v16.7h5.5V44.8h4.8
	C182.5,44.8,183.8,46.2,183.8,48.2z"/>
<path class="st2" d="M189.4,62.2h-6.3v-14c0-1.7-1-2.7-2.4-2.7h-4.1v16.7h-6.9V45.4H164l0,16.7l-7.2,0l0-22.7h27.2
	c3,0,5.3,2.5,5.3,5.7V62.2L189.4,62.2z M183.8,61.5h4.9V45.1c0-2.8-2-5-4.6-5h-26.5l0,21.3l5.8,0l0-16.7h7v16.7h5.5V44.8h4.8
	c1.9,0,3.1,1.4,3.1,3.5V61.5L183.8,61.5z"/>
<path d="M198.3,61.5h18c0-2.3,0-14.6,0-15.7c0-1-1.1-5-4.7-5.6l-15.9,0v4.5h11c2.5,0,3.4,2.5,3.5,3.8l0,0.4h-12c-2.4,0-4,3.6-4,6.9
	C194.3,58.5,195.4,61.5,198.3,61.5z M201.2,53.3c0.5-0.6,1.2-0.9,2-0.9h7V58h-7c-1.9,0-2.8-1.4-2.8-2.8
	C200.5,54.5,200.7,53.9,201.2,53.3z"/>
<path class="st2" d="M217,62.2h-18.7c-2.8,0-4.7-2.5-4.7-6.5c0-3.8,1.7-7.7,4.7-7.7h11.2c-0.2-0.8-0.8-2.7-2.8-2.7h-11.7v-5.9h16.7
	c4,0.8,5.3,5,5.3,6.3c0,1.2,0,16.1,0,16.1L217,62.2L217,62.2z M195.8,44.6h11c2.5,0,3.4,2.5,3.5,3.8l0,0.4h-12c-2.4,0-4,3.6-4,6.9
	c0,2.8,1,5.8,4,5.8h18c0-2.3,0-14.6,0-15.7c0-1-1.1-5-4.7-5.6l-15.9,0V44.6L195.8,44.6z M210.2,58h-7c-1.9,0-2.8-1.4-2.8-2.8
	c0-0.7,0.2-1.4,0.7-1.9c0.5-0.6,1.2-0.9,2-0.9h7V58L210.2,58z M203.2,53.2c-0.6,0-1.1,0.2-1.5,0.6c-0.3,0.4-0.5,0.9-0.5,1.5
	c0,1,0.6,2,2.1,2h6.3v-4.2H203.2L203.2,53.2z"/>
<rect x="222" y="40.3" width="5.6" height="21.2"/>
<path class="st2" d="M228.3,62.2h-7V39.6h7V62.2L228.3,62.2z M222,61.5h5.6V40.3H222V61.5L222,61.5z"/>
<path d="M244.9,44.7c0.9,0,1.6,0.3,2.1,0.9c0.4,0.6,0.5,1.3,0.5,1.8v14h6.1V45.2c-0.1-1.8-1-4.8-4-4.9h-16.3l0,21.1h5.7V44.7h5.7
	C244.8,44.7,244.9,44.7,244.9,44.7z"/>
<path class="st2" d="M254.3,62.2h-7.5V47.5c0-1-0.3-2.1-2-2h-5v16.7h-7.1l0-22.6h17c3.1,0,4.6,2.8,4.7,5.6V62.2L254.3,62.2z
	 M247.5,61.5h6.1V45.2c-0.1-1.8-1-4.8-4-4.9h-16.3l0,21.1h5.7V44.7h5.7c0,0,0.1,0,0.2,0c0.9,0,1.6,0.3,2.1,0.9
	c0.4,0.6,0.5,1.3,0.5,1.8V61.5L247.5,61.5z"/>
<path class="st1" d="M83.3,32.5c0,0.1-0.1,0.2-0.1,0.4c-0.9,2.7-1.4,3.2-5.3,4.1l-0.9,5.7l3.7,0l-4.5,29.7h8l6.1-40L83.3,32.5z"/>
<path class="st2" d="M85.4,73.8H74.5L79,44l-3.7,0l1.4-8.3l0.5-0.1c3.9-0.9,4-1,4.8-3.3c0.1-0.3,0.2-0.5,0.3-0.8l0.2-0.5l9.7-0.1
	L85.4,73.8L85.4,73.8z M76.1,72.4h8l6.1-40l-7,0.1c0,0.1-0.1,0.2-0.1,0.4c-0.9,2.7-1.4,3.2-5.3,4.1l-0.9,5.7l3.7,0L76.1,72.4
	L76.1,72.4z"/>
<path d="M256.9,30c-1.6,0-2.9,1.2-2.9,2.8c0,1.6,1.3,2.8,2.9,2.8c1.6,0,2.9-1.2,2.9-2.8C259.7,31.3,258.5,30,256.9,30z M256.9,35.1
	c-1.3,0-2.2-1-2.2-2.2c0-1.2,0.9-2.2,2.2-2.2c1.2,0,2.1,1,2.1,2.2C259,34.1,258.1,35.1,256.9,35.1z"/>
<path d="M257.5,32.9L257.5,32.9c0.3-0.1,0.6-0.4,0.6-0.7c0-0.3-0.1-0.5-0.3-0.6c-0.2-0.1-0.4-0.2-1-0.2c-0.5,0-0.8,0-1.1,0.1l0,2.8
	l0.6,0l0-1.1l0.3,0c0.4,0,0.5,0.1,0.6,0.4c0.1,0.3,0.1,0.6,0.2,0.7l0.7,0c-0.1-0.1-0.1-0.3-0.2-0.7C258,33.2,257.8,33,257.5,32.9z
	 M256.8,32.7l-0.3,0l0-0.8c0.1,0,0.2,0,0.4,0c0.4,0,0.6,0.2,0.6,0.4C257.4,32.6,257.1,32.7,256.8,32.7z"/>
<rect x="222" y="32.9" width="5.6" height="4.2"/>
<path class="st2" d="M228.3,37.8h-7v-5.7h7V37.8L228.3,37.8z M222,37.1h5.6v-4.2H222V37.1L222,37.1z"/>
</svg>
