<svg width="172" height="24" viewBox="0 0 172 24" fill="none" xmlns="http://www.w3.org/2000/svg"><path fill-rule="evenodd" clip-rule="evenodd" d="M18.9629 4.59767C20.2023 4.59767 21.207 3.56845 21.207 2.29883C21.207 1.02922 20.2023 0 18.9629 0C17.7235 0 16.7188 1.02922 16.7188 2.29883C16.7188 3.56845 17.7235 4.59767 18.9629 4.59767Z" fill="url(#paint0_linear)"></path><path d="M10.2107 2.81616C15.8499 2.81616 20.4214 7.49913 20.4214 13.2759V22.931H14.1379V13.2759C14.1379 11.054 12.3796 9.2529 10.2107 9.2529V2.81616Z" fill="#007FFF"></path><path d="M10.2107 2.81616C4.5715 2.81616 0 7.49913 0 13.2759V22.931H6.28352V13.2759C6.28352 11.054 8.04179 9.2529 10.2107 9.2529V2.81616Z" fill="#FFB700"></path><path d="M36.6873 7.65044C38.447 7.65044 39.869 8.22401 40.9533 9.37113C42.0375 10.5 42.5797 12.0842 42.5797 14.1235V23.0001H38.847V14.6424C38.847 13.4407 38.5537 12.5212 37.9671 11.8839C37.3805 11.2284 36.5807 10.9006 35.5675 10.9006C34.5365 10.9006 33.7189 11.2284 33.1145 11.8839C32.528 12.5212 32.2347 13.4407 32.2347 14.6424V23.0001H28.502V7.86894H32.2347V9.75351C32.7324 9.09801 33.3634 8.58817 34.1277 8.22401C34.9098 7.84163 35.763 7.65044 36.6873 7.65044Z" fill="#000C21" class="logo"></path><path d="M44.9356 15.3799C44.9356 13.8504 45.2289 12.4939 45.8155 11.3103C46.4198 10.1268 47.2286 9.21636 48.2417 8.57907C49.2727 7.94178 50.4192 7.62313 51.6812 7.62313C52.7832 7.62313 53.7431 7.85073 54.5607 8.30594C55.3961 8.76115 56.0627 9.33471 56.5604 10.0266V7.86894H60.3198V23.0001H56.5604V20.7878C56.0805 21.4979 55.4139 22.0897 54.5607 22.5631C53.7253 23.0183 52.7566 23.2459 51.6545 23.2459C50.4103 23.2459 49.2727 22.9181 48.2417 22.2626C47.2286 21.6071 46.4198 20.6876 45.8155 19.5041C45.2289 18.3023 44.9356 16.9276 44.9356 15.3799ZM56.5604 15.4345C56.5604 14.5059 56.3826 13.7138 56.0271 13.0583C55.6716 12.3846 55.1917 11.8748 54.5874 11.5288C53.983 11.1647 53.3342 10.9826 52.641 10.9826C51.9478 10.9826 51.3079 11.1555 50.7213 11.5015C50.1348 11.8475 49.6548 12.3573 49.2816 13.031C48.9261 13.6865 48.7483 14.4695 48.7483 15.3799C48.7483 16.2903 48.9261 17.0915 49.2816 17.7834C49.6548 18.4571 50.1348 18.976 50.7213 19.3402C51.3257 19.7044 51.9656 19.8864 52.641 19.8864C53.3342 19.8864 53.983 19.7135 54.5874 19.3675C55.1917 19.0033 55.6716 18.4935 56.0271 17.838C56.3826 17.1643 56.5604 16.3631 56.5604 15.4345Z" fill="#000C21" class="logo"></path><path d="M82.0753 7.65044C83.8883 7.65044 85.3459 8.22401 86.4479 9.37113C87.5677 10.5 88.1276 12.0842 88.1276 14.1235V23.0001H84.3949V14.6424C84.3949 13.4589 84.1016 12.5576 83.515 11.9385C82.9285 11.3012 82.1286 10.9826 81.1154 10.9826C80.1023 10.9826 79.2935 11.3012 78.6892 11.9385C78.1026 12.5576 77.8093 13.4589 77.8093 14.6424V23.0001H74.0766V14.6424C74.0766 13.4589 73.7833 12.5576 73.1967 11.9385C72.6101 11.3012 71.8103 10.9826 70.7971 10.9826C69.7662 10.9826 68.9485 11.3012 68.3442 11.9385C67.7576 12.5576 67.4643 13.4589 67.4643 14.6424V23.0001H63.7316V7.86894H67.4643V9.69888C67.9442 9.06159 68.5575 8.56086 69.304 8.19669C70.0683 7.83253 70.9037 7.65044 71.8103 7.65044C72.9656 7.65044 73.9966 7.90536 74.9031 8.41519C75.8096 8.90682 76.5117 9.61694 77.0094 10.5456C77.4893 9.67157 78.1826 8.97055 79.0891 8.4425C80.0134 7.91446 81.0088 7.65044 82.0753 7.65044Z" fill="#000C21" class="logo"></path><path d="M105.167 15.1068C105.167 15.653 105.131 16.1446 105.06 16.5816H94.2621C94.351 17.6741 94.7243 18.5299 95.3819 19.149C96.0396 19.7681 96.8484 20.0776 97.8082 20.0776C99.1946 20.0776 100.181 19.4677 100.768 18.2477H104.794C104.367 19.7044 103.549 20.9061 102.341 21.8529C101.132 22.7816 99.6479 23.2459 97.8882 23.2459C96.4662 23.2459 95.1864 22.9272 94.0488 22.2899C92.929 21.6344 92.0491 20.7149 91.4092 19.5314C90.7871 18.3478 90.476 16.9822 90.476 15.4345C90.476 13.8686 90.7871 12.4939 91.4092 11.3103C92.0314 10.1268 92.9023 9.21636 94.0221 8.57907C95.142 7.94178 96.4306 7.62313 97.8882 7.62313C99.2924 7.62313 100.546 7.93267 101.648 8.55175C102.767 9.17084 103.629 10.0539 104.234 11.2011C104.856 12.33 105.167 13.6319 105.167 15.1068ZM101.301 14.0143C101.283 13.031 100.937 12.248 100.261 11.6654C99.5857 11.0645 98.7592 10.7641 97.7815 10.7641C96.8572 10.7641 96.0751 11.0554 95.4352 11.6381C94.8131 12.2025 94.431 12.9946 94.2888 14.0143H101.301Z" fill="#000C21" class="logo"></path><path d="M111.39 10.0813C111.87 9.35292 112.528 8.76115 113.363 8.30594C114.217 7.85073 115.185 7.62313 116.27 7.62313C117.532 7.62313 118.669 7.94178 119.682 8.57907C120.713 9.21636 121.522 10.1268 122.109 11.3103C122.713 12.4757 123.015 13.8322 123.015 15.3799C123.015 16.9276 122.713 18.3023 122.109 19.5041C121.522 20.6876 120.713 21.6071 119.682 22.2626C118.669 22.9181 117.532 23.2459 116.27 23.2459C115.168 23.2459 114.199 23.0274 113.363 22.5904C112.546 22.1352 111.888 21.5525 111.39 20.8424V23.0001H107.658V2.78882H111.39V10.0813ZM119.202 15.3799C119.202 14.4695 119.016 13.6865 118.643 13.031C118.287 12.3573 117.807 11.8475 117.203 11.5015C116.616 11.1555 115.976 10.9826 115.283 10.9826C114.608 10.9826 113.968 11.1647 113.363 11.5288C112.777 11.8748 112.297 12.3846 111.924 13.0583C111.568 13.732 111.39 14.5241 111.39 15.4345C111.39 16.3449 111.568 17.137 111.924 17.8107C112.297 18.4844 112.777 19.0033 113.363 19.3675C113.968 19.7135 114.608 19.8864 115.283 19.8864C115.976 19.8864 116.616 19.7044 117.203 19.3402C117.807 18.976 118.287 18.4571 118.643 17.7834C119.016 17.1097 119.202 16.3085 119.202 15.3799Z" fill="#000C21" class="logo"></path><path d="M124.534 15.3799C124.534 13.8504 124.827 12.4939 125.414 11.3103C126.018 10.1268 126.827 9.21636 127.84 8.57907C128.871 7.94178 130.018 7.62313 131.28 7.62313C132.382 7.62313 133.341 7.85073 134.159 8.30594C134.995 8.76115 135.661 9.33471 136.159 10.0266V7.86894H139.918V23.0001H136.159V20.7878C135.679 21.4979 135.012 22.0897 134.159 22.5631C133.324 23.0183 132.355 23.2459 131.253 23.2459C130.009 23.2459 128.871 22.9181 127.84 22.2626C126.827 21.6071 126.018 20.6876 125.414 19.5041C124.827 18.3023 124.534 16.9276 124.534 15.3799ZM136.159 15.4345C136.159 14.5059 135.981 13.7138 135.626 13.0583C135.27 12.3846 134.79 11.8748 134.186 11.5288C133.581 11.1647 132.933 10.9826 132.239 10.9826C131.546 10.9826 130.906 11.1555 130.32 11.5015C129.733 11.8475 129.253 12.3573 128.88 13.031C128.524 13.6865 128.347 14.4695 128.347 15.3799C128.347 16.2903 128.524 17.0915 128.88 17.7834C129.253 18.4571 129.733 18.976 130.32 19.3402C130.924 19.7044 131.564 19.8864 132.239 19.8864C132.933 19.8864 133.581 19.7135 134.186 19.3675C134.79 19.0033 135.27 18.4935 135.626 17.838C135.981 17.1643 136.159 16.3631 136.159 15.4345Z" fill="#000C21" class="logo"></path><path d="M148.982 23.2459C147.774 23.2459 146.689 23.0274 145.73 22.5904C144.77 22.1352 144.005 21.5252 143.437 20.7604C142.886 19.9957 142.583 19.149 142.53 18.2204H146.289C146.361 18.803 146.636 19.2856 147.116 19.6679C147.614 20.0503 148.227 20.2415 148.956 20.2415C149.667 20.2415 150.218 20.0958 150.609 19.8045C151.018 19.5132 151.222 19.1399 151.222 18.6847C151.222 18.1931 150.973 17.8289 150.475 17.5922C149.996 17.3373 149.222 17.0642 148.156 16.7728C147.054 16.4997 146.147 16.2175 145.436 15.9261C144.743 15.6348 144.139 15.1887 143.623 14.5878C143.126 13.9869 142.877 13.1767 142.877 12.157C142.877 11.3194 143.108 10.5547 143.57 9.86275C144.05 9.17084 144.725 8.62459 145.596 8.22401C146.485 7.82342 147.525 7.62313 148.716 7.62313C150.475 7.62313 151.88 8.07834 152.928 8.98876C153.977 9.88096 154.555 11.0918 154.661 12.6213H151.089C151.035 12.0204 150.787 11.547 150.342 11.2011C149.916 10.8369 149.338 10.6548 148.609 10.6548C147.934 10.6548 147.409 10.7823 147.036 11.0372C146.681 11.2921 146.503 11.6472 146.503 12.1024C146.503 12.6122 146.752 13.0037 147.249 13.2768C147.747 13.5317 148.52 13.7958 149.569 14.0689C150.635 14.342 151.515 14.6242 152.209 14.9156C152.902 15.2069 153.497 15.6621 153.995 16.2812C154.51 16.8821 154.777 17.6832 154.795 18.6847C154.795 19.5587 154.555 20.3417 154.075 21.0336C153.613 21.7255 152.937 22.2717 152.049 22.6723C151.178 23.0547 150.156 23.2459 148.982 23.2459Z" fill="#000C21" class="logo"></path><path d="M171.356 15.1068C171.356 15.653 171.321 16.1446 171.249 16.5816H160.451C160.54 17.6741 160.913 18.5299 161.571 19.149C162.229 19.7681 163.037 20.0776 163.997 20.0776C165.384 20.0776 166.37 19.4677 166.957 18.2477H170.983C170.556 19.7044 169.739 20.9061 168.53 21.8529C167.321 22.7816 165.837 23.2459 164.077 23.2459C162.655 23.2459 161.375 22.9272 160.238 22.2899C159.118 21.6344 158.238 20.7149 157.598 19.5314C156.976 18.3478 156.665 16.9822 156.665 15.4345C156.665 13.8686 156.976 12.4939 157.598 11.3103C158.22 10.1268 159.091 9.21636 160.211 8.57907C161.331 7.94178 162.62 7.62313 164.077 7.62313C165.481 7.62313 166.735 7.93267 167.837 8.55175C168.956 9.17084 169.819 10.0539 170.423 11.2011C171.045 12.33 171.356 13.6319 171.356 15.1068ZM167.49 14.0143C167.472 13.031 167.126 12.248 166.45 11.6654C165.775 11.0645 164.948 10.7641 163.971 10.7641C163.046 10.7641 162.264 11.0554 161.624 11.6381C161.002 12.2025 160.62 12.9946 160.478 14.0143H167.49Z" fill="#000C21" class="logo"></path><defs><linearGradient id="paint0_linear" x1="14.613" y1="2.29162" x2="19.0604" y2="6.63317" gradientUnits="userSpaceOnUse"><stop stop-color="#FF5980"></stop><stop offset="1" stop-color="#FFA882"></stop></linearGradient></defs></svg>