<svg id="Layer_1" data-name="Layer 1" xmlns="http://www.w3.org/2000/svg" viewBox="0 0 281.041 67.664">
  <defs>
    <style>
      .cls-1 {
        fill: #ed7778;
      }

      .cls-2 {
        fill: #fff;
      }

      .cls-3 {
        fill: #212222;
      }
    </style>
  </defs>
  <title>Porkbun_RGB</title>
  <g>
    <path class="cls-1" d="M75.978,23.648A33.832,33.832,0,1,0,109.81,57.48,33.832,33.832,0,0,0,75.978,23.648Z" transform="translate(-42.146 -23.648)"/>
    <g>
      <g>
        <path class="cls-2" d="M67.095,43.356a30.81,30.81,0,0,0-8.487-3.174,9.914,9.914,0,0,0,.991,9.947A19.594,19.594,0,0,1,67.095,43.356Z" transform="translate(-42.146 -23.648)"/>
        <path class="cls-2" d="M92.358,50.129a9.914,9.914,0,0,0,.991-9.947,30.81,30.81,0,0,0-8.487,3.174A19.594,19.594,0,0,1,92.358,50.129Z" transform="translate(-42.146 -23.648)"/>
      </g>
      <g>
        <path class="cls-2" d="M80.515,54.652a1.075,1.075,0,0,0-.883,1.69h0a3.137,3.137,0,0,0,1.651,1.172,2.95,2.95,0,0,0,.347-1.39,2.876,2.876,0,0,0-.048-.5A1.073,1.073,0,0,0,80.515,54.652Z" transform="translate(-42.146 -23.648)"/>
        <path class="cls-2" d="M75.312,42.469c-9.9.352-17.6,8.789-17.6,18.7V71.436a3.343,3.343,0,0,0,6.686,0V68.755H87.562v2.681a3.343,3.343,0,0,0,6.686,0V60.727A18.27,18.27,0,0,0,75.312,42.469ZM85.737,56.881a4.35,4.35,0,0,1-2.615,2.052,4.338,4.338,0,0,1-3.859,2.358c-.182,0-.4-.029-.535-.037a1.1,1.1,0,0,1-1.07-1.082,1.083,1.083,0,0,1,1.07-1.082h0a2.953,2.953,0,0,0,1.414-.4,4.363,4.363,0,0,1-1.626-1.3,2.6,2.6,0,1,1,4.085-3.2,4.308,4.308,0,0,1,1,2.763c0,.119-.008.236-.018.352a3.144,3.144,0,0,0,1.169-1.028.577.577,0,0,1,.98.608Z" transform="translate(-42.146 -23.648)"/>
      </g>
    </g>
    <g>
      <path class="cls-3" d="M128.037,44.608h4.453V46.76a17.754,17.754,0,0,1-.1,1.851h.1s2.151-4.6,8.506-4.6c6.8,0,11.107,5.4,11.107,13.259,0,8.056-4.853,13.259-11.458,13.259a8.811,8.811,0,0,1-7.755-4.153h-.1s.1.9.1,2.2V79.932h-4.853ZM139.9,66.373c4,0,7.3-3.3,7.3-9.056,0-5.5-2.952-9.056-7.155-9.056-3.8,0-7.3,2.652-7.3,9.106C132.74,61.87,135.242,66.373,139.9,66.373Z" transform="translate(-42.146 -23.648)"/>
      <path class="cls-3" d="M170.86,44.008c7.555,0,13.659,5.554,13.659,13.209,0,7.705-6.1,13.309-13.659,13.309S157.2,64.922,157.2,57.217C157.2,49.561,163.3,44.008,170.86,44.008Zm0,22.315a8.746,8.746,0,0,0,8.706-9.106,8.711,8.711,0,1,0-17.412,0A8.776,8.776,0,0,0,170.86,66.323Z" transform="translate(-42.146 -23.648)"/>
      <path class="cls-3" d="M191.269,44.608h4.7v4.4a18.152,18.152,0,0,1-.1,1.9h.1c1.15-3.7,4.1-6.6,8.005-6.6a8.6,8.6,0,0,1,1.25.1v4.8a7,7,0,0,0-1.4-.15c-3.1,0-5.954,2.2-7.1,5.954a15.389,15.389,0,0,0-.6,4.553V69.925h-4.853Z" transform="translate(-42.146 -23.648)"/>
      <path class="cls-3" d="M211.028,34.6h4.853V53.914h3.552l6.9-9.306h5.5l-8.406,11.157v.1l9.356,14.06h-5.654l-7.605-11.908h-3.652V69.925h-4.853Z" transform="translate(-42.146 -23.648)"/>
      <path class="cls-3" d="M238.342,34.6H243.2V46.159c0,1.251-.1,2.152-.1,2.152h.1a8.941,8.941,0,0,1,8.105-4.3c6.8,0,11.107,5.4,11.107,13.259,0,8.056-4.853,13.259-11.508,13.259a9.1,9.1,0,0,1-7.955-4.353h-.1a16.975,16.975,0,0,1,.1,1.9v1.851h-4.6ZM250.2,66.373c4,0,7.3-3.3,7.3-9.056,0-5.5-2.952-9.056-7.155-9.056-3.8,0-7.3,2.652-7.3,9.106C243.045,61.87,245.4,66.373,250.2,66.373Z" transform="translate(-42.146 -23.648)"/>
      <path class="cls-3" d="M269.007,44.608h4.854v15.11c0,3.5.7,6.3,4.753,6.3,5.154,0,8.206-4.553,8.206-9.556V44.608h4.854V69.925h-4.7V66.573a16.581,16.581,0,0,1,.1-1.852h-.1a10.21,10.21,0,0,1-9.307,5.8c-5.7,0-8.656-3-8.656-9.707Z" transform="translate(-42.146 -23.648)"/>
      <path class="cls-3" d="M300.272,44.608h4.7V47.96a17.758,17.758,0,0,1-.1,1.852h.1a10.305,10.305,0,0,1,9.506-5.8c5.954,0,8.706,3.252,8.706,9.707V69.925h-4.853V54.815c0-3.552-.75-6.354-4.8-6.354a8.291,8.291,0,0,0-8.005,6.2,11.98,11.98,0,0,0-.4,3.4V69.925h-4.853Z" transform="translate(-42.146 -23.648)"/>
    </g>
  </g>
</svg>
