<svg version="1.1" id="Layer_1" xmlns="http://www.w3.org/2000/svg" xmlns:xlink="http://www.w3.org/1999/xlink" x="0px" y="0px"
	 width="100%" viewBox="0 0 1987 1987" enable-background="new 0 0 1987 1987" xml:space="preserve">
<path fill="#FFFFFF" opacity="1.000000" stroke="none" 
	d="
M1050.000000,1988.000000 
	C700.000000,1988.000000 350.500000,1988.000000 1.000000,1988.000000 
	C1.000000,1325.666626 1.000000,663.333313 1.000000,1.000000 
	C663.333313,1.000000 1325.666626,1.000000 1988.000000,1.000000 
	C1988.000000,663.333313 1988.000000,1325.666626 1988.000000,1988.000000 
	C1675.500000,1988.000000 1363.000000,1988.000000 1050.000000,1988.000000 
M586.968750,1549.357056 
	C592.317932,1538.950073 599.103394,1529.014893 602.710938,1518.035645 
	C609.766541,1496.562012 614.722778,1474.409302 621.138428,1452.712158 
	C631.414429,1417.959473 641.393127,1383.087646 652.922668,1348.744751 
	C667.144470,1306.382080 682.522156,1264.397461 697.985046,1222.465210 
	C707.957214,1195.422607 718.681458,1168.645142 729.623169,1141.976196 
	C738.867310,1119.444824 748.748901,1097.169556 758.636536,1074.908936 
	C772.372986,1043.983032 786.251526,1013.118774 800.321472,982.343445 
	C807.602051,966.418457 815.183533,950.619812 823.054260,934.978088 
	C841.573608,898.174255 860.155029,861.398926 879.085083,824.805481 
	C892.604797,798.670593 906.708557,772.837463 920.597778,746.894287 
	C926.438354,735.984863 932.285889,725.076416 938.328247,714.278259 
	C948.138489,696.746521 958.136230,679.319824 968.008240,661.822510 
	C975.828491,647.961670 983.505615,634.019714 991.377319,620.188354 
	C1003.464600,598.949890 1015.716492,577.805176 1027.799316,556.564209 
	C1036.939209,540.497009 1045.904297,524.330444 1055.026978,508.253479 
	C1055.569580,507.297058 1056.747559,506.238525 1057.758545,506.087219 
	C1063.387329,505.244843 1069.044556,504.547577 1074.712891,504.025238 
	C1086.459839,502.942688 1098.213867,501.920746 1109.976196,501.022736 
	C1124.225464,499.934845 1138.481567,498.919495 1152.744263,498.024719 
	C1165.241333,497.240662 1177.744629,496.359070 1190.257935,496.065887 
	C1214.170776,495.505676 1238.092773,495.332489 1262.010986,495.002563 
	C1263.177368,494.986450 1264.364990,494.865387 1265.507568,495.033112 
	C1283.016724,497.602600 1298.776123,504.657867 1313.547241,514.088989 
	C1330.282349,524.774109 1344.424194,538.488953 1358.184082,552.648926 
	C1367.194702,561.921387 1374.445679,572.314880 1379.661865,584.177429 
	C1390.004883,607.698914 1393.190552,631.974854 1389.148438,657.469299 
	C1386.218994,675.946777 1380.427612,693.358704 1372.382202,710.070984 
	C1360.620972,734.502625 1345.835205,757.062683 1327.949951,777.415527 
	C1310.879150,796.841553 1293.439819,815.965942 1275.583496,834.669922 
	C1266.871460,843.795593 1256.958862,851.799438 1247.375122,860.062195 
	C1237.232544,868.806885 1227.322876,877.940247 1216.447632,885.691772 
	C1193.864868,901.787720 1171.099731,917.696777 1147.677368,932.526001 
	C1126.104370,946.184387 1103.661255,958.485168 1081.430420,971.082031 
	C1067.440308,979.009460 1052.890381,985.963135 1039.024170,994.091736 
	C1013.369446,1009.131165 987.638000,1024.104858 962.708496,1040.291992 
	C947.373047,1050.249390 932.826721,1061.679077 919.081299,1073.761841 
	C902.676880,1088.182007 888.072937,1104.480957 876.366699,1123.142212 
	C865.613220,1140.284302 859.697510,1159.032715 858.056335,1179.083496 
	C856.215759,1201.570557 862.101807,1222.429443 871.838989,1242.534668 
	C883.609375,1266.838013 899.688477,1288.270508 916.120972,1309.396118 
	C931.237427,1328.829712 947.207397,1347.607788 963.060059,1366.457275 
	C974.244690,1379.756226 985.787476,1392.757202 997.306396,1405.770874 
	C1008.968384,1418.946167 1020.604980,1432.152954 1032.603271,1445.019043 
	C1047.291748,1460.770020 1062.119873,1476.404663 1077.296143,1491.683716 
	C1096.628052,1511.146362 1116.347534,1530.224731 1135.951538,1549.416016 
	C1140.074829,1553.452271 1144.448730,1557.231323 1148.661865,1561.177246 
	C1164.825684,1576.315674 1180.944580,1591.502319 1197.135254,1606.611938 
	C1205.209717,1614.147217 1213.289429,1621.683594 1221.566895,1628.992920 
	C1237.049561,1642.664307 1252.655029,1656.196899 1268.252930,1669.737183 
	C1280.247559,1680.149658 1292.235840,1690.571777 1304.359253,1700.833252 
	C1320.690552,1714.656372 1337.032837,1728.471069 1353.584106,1742.028442 
	C1372.223145,1757.295776 1390.850586,1772.597168 1409.944824,1787.283325 
	C1428.411865,1801.487061 1447.113159,1815.444214 1466.342896,1828.585571 
	C1497.694214,1850.011230 1529.496582,1870.819214 1565.030396,1884.955933 
	C1577.102051,1889.758667 1589.472046,1893.634521 1602.745361,1892.993286 
	C1608.831299,1892.699341 1614.914551,1892.351318 1620.997314,1891.998901 
	C1635.948608,1891.132568 1650.311157,1887.452637 1664.575806,1883.128784 
	C1682.445801,1877.712158 1699.576050,1870.572144 1715.884521,1861.526978 
	C1727.832397,1854.900635 1739.922852,1848.436890 1751.342896,1840.972168 
	C1775.979492,1824.868530 1799.504150,1807.213379 1821.188843,1787.250000 
	C1837.508667,1772.225708 1853.899902,1757.253540 1869.645752,1741.639526 
	C1881.338135,1730.044800 1892.405518,1717.763184 1903.083618,1705.219238 
	C1912.222046,1694.483643 1920.695801,1683.145874 1928.958374,1671.709351 
	C1943.036011,1652.223877 1955.139771,1631.477905 1963.788696,1609.051514 
	C1969.192383,1595.040161 1973.203125,1580.416382 1976.797852,1565.811157 
	C1978.922729,1557.177979 1979.440063,1548.066895 1979.897949,1539.130737 
	C1980.294800,1531.384277 1980.617798,1523.383667 1979.167480,1515.842773 
	C1975.658813,1497.600098 1964.558716,1483.965088 1950.234131,1472.758179 
	C1939.017700,1463.982788 1926.170166,1459.014771 1912.046265,1458.089966 
	C1892.838745,1456.832764 1874.519287,1460.829956 1857.557861,1469.926758 
	C1835.479004,1481.767944 1813.489502,1493.731934 1789.327759,1500.959717 
	C1774.520264,1505.389038 1759.344482,1508.114380 1743.963257,1508.810303 
	C1735.346558,1509.200195 1726.614136,1507.921753 1717.984497,1506.948120 
	C1700.945923,1505.025879 1684.746094,1499.581543 1670.459106,1490.518921 
	C1644.188477,1473.854492 1618.283813,1456.523193 1593.089844,1438.278076 
	C1569.553223,1421.233276 1546.984009,1402.832642 1524.278076,1384.667358 
	C1507.962769,1371.614868 1491.913574,1358.209106 1476.137207,1344.509888 
	C1463.319092,1333.379517 1450.830078,1321.838989 1438.659790,1310.002441 
	C1426.643677,1298.315796 1414.911865,1286.303101 1403.594849,1273.939575 
	C1388.078369,1256.987915 1372.643799,1239.924561 1357.980957,1222.240112 
	C1346.309448,1208.163452 1335.529907,1193.309204 1324.946167,1178.380493 
	C1316.286377,1166.165405 1308.285767,1153.463501 1300.406128,1140.722046 
	C1295.697876,1133.108765 1291.786133,1125.002930 1287.393433,1116.891602 
	C1306.431885,1106.377808 1324.934448,1096.096802 1343.496704,1085.924561 
	C1369.153198,1071.864868 1394.850830,1057.880371 1420.537842,1043.876343 
	C1439.451538,1033.564941 1458.368286,1023.258789 1477.298462,1012.977661 
	C1501.455566,999.857788 1525.749268,986.983521 1549.758789,973.599426 
	C1573.491455,960.369629 1597.282104,947.188904 1620.438721,932.993835 
	C1654.465942,912.135254 1688.071045,890.578918 1721.628540,868.966614 
	C1745.069336,853.869751 1766.528687,836.093750 1787.012207,817.267395 
	C1802.180054,803.326477 1816.254639,788.255127 1828.827026,771.796204 
	C1846.566895,748.572388 1861.128540,723.812378 1869.230103,695.493958 
	C1873.140747,681.825012 1875.733521,667.949707 1875.848877,653.800537 
	C1875.938599,642.806458 1875.144775,631.745422 1873.866089,620.816833 
	C1872.609253,610.073364 1870.732422,599.345703 1868.272705,588.810730 
	C1862.241821,562.979126 1853.037598,538.217468 1842.502441,513.880432 
	C1830.599121,486.383179 1816.603149,459.971039 1801.458862,434.203979 
	C1789.639160,414.093323 1776.332153,394.862946 1764.057983,375.011505 
	C1749.977051,352.237946 1732.462158,332.607941 1711.027222,316.667145 
	C1695.138062,304.850708 1678.297119,294.424377 1660.289673,286.043945 
	C1647.919067,280.286896 1635.732910,274.006195 1622.999756,269.186676 
	C1604.587769,262.217804 1585.972900,255.593948 1567.047852,250.220215 
	C1543.087158,243.416641 1518.864502,237.374969 1494.501831,232.194748 
	C1471.570801,227.318939 1448.338013,223.823746 1425.186523,220.036133 
	C1409.161499,217.414444 1393.081421,215.064346 1376.965942,213.081635 
	C1363.008789,211.364487 1348.985962,210.070892 1334.957642,209.075912 
	C1320.810303,208.072479 1306.624756,207.557404 1292.448364,207.032196 
	C1279.368652,206.547607 1266.277466,206.006973 1253.193726,206.060593 
	C1211.942261,206.229675 1170.689819,206.511139 1129.442017,207.069809 
	C1110.932007,207.320496 1092.428955,208.252777 1073.929199,209.028229 
	C1061.585083,209.545654 1049.250732,210.303207 1036.914795,211.005234 
	C1019.823547,211.977905 1002.732361,212.956772 985.646301,214.017090 
	C976.469604,214.586578 967.304077,215.334869 958.133057,215.997040 
	C939.625854,217.333328 921.117188,218.649857 902.611511,220.007126 
	C894.104919,220.631027 885.607483,221.380356 877.099731,221.986938 
	C862.514709,223.026840 847.924622,223.995361 833.337219,225.002304 
	C828.584717,225.330353 823.824890,225.588394 819.084473,226.045685 
	C805.907837,227.316818 792.745605,228.739304 779.565979,229.977188 
	C771.075867,230.774612 762.554688,231.242828 754.066040,232.053299 
	C741.219727,233.279831 728.394104,234.721863 715.550964,235.982956 
	C707.725403,236.751373 699.872131,237.243393 692.051392,238.053436 
	C680.206299,239.280289 668.383362,240.719498 656.541992,241.983795 
	C649.384644,242.747971 642.195435,243.225281 635.046997,244.058456 
	C624.699463,245.264481 614.387512,246.777466 604.038635,247.970703 
	C594.139038,249.112152 584.190063,249.837189 574.301636,251.059662 
	C559.452820,252.895340 544.649658,255.099274 529.804688,256.968842 
	C517.994690,258.456177 506.115906,259.426392 494.330688,261.076508 
	C476.979553,263.505981 459.691589,266.383545 442.363464,268.981628 
	C426.309937,271.388611 410.190460,273.392609 394.188599,276.097931 
	C376.507599,279.087189 358.885864,282.468964 341.314117,286.051514 
	C321.737640,290.042847 302.191010,294.215210 282.738007,298.764679 
	C269.929565,301.760223 257.212341,305.242279 244.627808,309.076111 
	C225.258316,314.976959 205.761200,321.230286 189.086319,332.876312 
	C177.678543,340.843658 167.415344,350.784332 157.870285,360.992737 
	C147.788513,371.775177 138.629211,383.536926 130.011658,395.548676 
	C108.558266,425.451813 91.105759,457.696381 75.995674,491.215363 
	C66.703217,511.829010 56.967365,532.271179 48.505257,553.224304 
	C35.010929,586.637878 20.905014,619.880127 11.694252,654.844177 
	C9.274229,664.030579 7.087465,673.413574 6.232500,682.836914 
	C5.463246,691.315491 5.889137,700.092224 7.179914,708.524353 
	C9.195522,721.691650 15.261746,732.859924 26.302734,741.090698 
	C35.726181,748.115662 46.347450,750.788452 57.787003,752.156860 
	C71.974289,753.854126 85.758438,753.011902 99.507851,749.182007 
	C114.401230,745.033447 127.270134,736.674133 141.018311,730.113770 
	C161.861557,720.167786 182.821121,710.388611 204.161865,701.582031 
	C229.467804,691.139160 254.943527,680.954834 280.862518,672.186157 
	C319.582062,659.087036 358.644775,646.964600 397.770782,635.117920 
	C423.114044,627.444397 448.780548,620.813782 474.394836,614.067444 
	C496.936127,608.130554 519.560791,602.492920 542.231750,597.070496 
	C565.245544,591.566040 588.351135,586.442810 611.437439,581.245850 
	C619.340088,579.466858 627.306213,577.969971 636.603699,576.065613 
	C634.559326,580.086182 633.378845,583.132446 631.608398,585.784851 
	C570.424561,677.451904 508.465149,768.606934 449.965851,862.041077 
	C433.822510,887.824890 417.266785,913.350159 401.015686,939.067017 
	C389.240875,957.700256 377.579315,976.406250 366.007629,995.166321 
	C353.172638,1015.974487 340.473969,1036.866943 327.759216,1057.748901 
	C315.467010,1077.936768 303.134674,1098.101196 290.994171,1118.380249 
	C277.779327,1140.453613 264.749634,1162.637939 251.667816,1184.790771 
	C239.735046,1204.997681 227.764969,1225.183350 215.949142,1245.458740 
	C202.190414,1269.067871 188.310043,1292.612549 174.979630,1316.463135 
	C159.919846,1343.407959 145.175140,1370.535889 130.735016,1397.817871 
	C117.433846,1422.948120 104.996498,1448.499634 97.408180,1476.098389 
	C93.081436,1491.834839 92.108307,1507.619629 96.837044,1523.387817 
	C104.132042,1547.713013 118.851357,1566.910889 138.300369,1582.850586 
	C160.920868,1601.390015 187.200806,1612.308472 215.029602,1619.957886 
	C235.198624,1625.501709 255.674225,1629.501831 276.590637,1631.035767 
	C293.270782,1632.259033 309.917389,1634.288818 326.615204,1634.820923 
	C342.340485,1635.322144 358.124969,1634.603271 373.861694,1633.920776 
	C388.297607,1633.294678 402.778259,1632.601318 417.104584,1630.841797 
	C433.155853,1628.870361 449.169525,1626.207031 464.994934,1622.873535 
	C488.647278,1617.891235 511.253113,1609.748413 532.460266,1597.947510 
	C554.039551,1585.939331 572.200562,1570.115234 586.968750,1549.357056 
z"/>
<path fill="#000000" opacity="1.000000" stroke="none" 
	d="
M586.754883,1549.661621 
	C572.200562,1570.115234 554.039551,1585.939331 532.460266,1597.947510 
	C511.253113,1609.748413 488.647278,1617.891235 464.994934,1622.873535 
	C449.169525,1626.207031 433.155853,1628.870361 417.104584,1630.841797 
	C402.778259,1632.601318 388.297607,1633.294678 373.861694,1633.920776 
	C358.124969,1634.603271 342.340485,1635.322144 326.615204,1634.820923 
	C309.917389,1634.288818 293.270782,1632.259033 276.590637,1631.035767 
	C255.674225,1629.501831 235.198624,1625.501709 215.029602,1619.957886 
	C187.200806,1612.308472 160.920868,1601.390015 138.300369,1582.850586 
	C118.851357,1566.910889 104.132042,1547.713013 96.837044,1523.387817 
	C92.108307,1507.619629 93.081436,1491.834839 97.408180,1476.098389 
	C104.996498,1448.499634 117.433846,1422.948120 130.735016,1397.817871 
	C145.175140,1370.535889 159.919846,1343.407959 174.979630,1316.463135 
	C188.310043,1292.612549 202.190414,1269.067871 215.949142,1245.458740 
	C227.764969,1225.183350 239.735046,1204.997681 251.667816,1184.790771 
	C264.749634,1162.637939 277.779327,1140.453613 290.994171,1118.380249 
	C303.134674,1098.101196 315.467010,1077.936768 327.759216,1057.748901 
	C340.473969,1036.866943 353.172638,1015.974487 366.007629,995.166321 
	C377.579315,976.406250 389.240875,957.700256 401.015686,939.067017 
	C417.266785,913.350159 433.822510,887.824890 449.965851,862.041077 
	C508.465149,768.606934 570.424561,677.451904 631.608398,585.784851 
	C633.378845,583.132446 634.559326,580.086182 636.603699,576.065613 
	C627.306213,577.969971 619.340088,579.466858 611.437439,581.245850 
	C588.351135,586.442810 565.245544,591.566040 542.231750,597.070496 
	C519.560791,602.492920 496.936127,608.130554 474.394836,614.067444 
	C448.780548,620.813782 423.114044,627.444397 397.770782,635.117920 
	C358.644775,646.964600 319.582062,659.087036 280.862518,672.186157 
	C254.943527,680.954834 229.467804,691.139160 204.161865,701.582031 
	C182.821121,710.388611 161.861557,720.167786 141.018311,730.113770 
	C127.270134,736.674133 114.401230,745.033447 99.507851,749.182007 
	C85.758438,753.011902 71.974289,753.854126 57.787003,752.156860 
	C46.347450,750.788452 35.726181,748.115662 26.302734,741.090698 
	C15.261746,732.859924 9.195522,721.691650 7.179914,708.524353 
	C5.889137,700.092224 5.463246,691.315491 6.232500,682.836914 
	C7.087465,673.413574 9.274229,664.030579 11.694252,654.844177 
	C20.905014,619.880127 35.010929,586.637878 48.505257,553.224304 
	C56.967365,532.271179 66.703217,511.829010 75.995674,491.215363 
	C91.105759,457.696381 108.558266,425.451813 130.011658,395.548676 
	C138.629211,383.536926 147.788513,371.775177 157.870285,360.992737 
	C167.415344,350.784332 177.678543,340.843658 189.086319,332.876312 
	C205.761200,321.230286 225.258316,314.976959 244.627808,309.076111 
	C257.212341,305.242279 269.929565,301.760223 282.738007,298.764679 
	C302.191010,294.215210 321.737640,290.042847 341.314117,286.051514 
	C358.885864,282.468964 376.507599,279.087189 394.188599,276.097931 
	C410.190460,273.392609 426.309937,271.388611 442.363464,268.981628 
	C459.691589,266.383545 476.979553,263.505981 494.330688,261.076508 
	C506.115906,259.426392 517.994690,258.456177 529.804688,256.968842 
	C544.649658,255.099274 559.452820,252.895340 574.301636,251.059662 
	C584.190063,249.837189 594.139038,249.112152 604.038635,247.970703 
	C614.387512,246.777466 624.699463,245.264481 635.046997,244.058456 
	C642.195435,243.225281 649.384644,242.747971 656.541992,241.983795 
	C668.383362,240.719498 680.206299,239.280289 692.051392,238.053436 
	C699.872131,237.243393 707.725403,236.751373 715.550964,235.982956 
	C728.394104,234.721863 741.219727,233.279831 754.066040,232.053299 
	C762.554688,231.242828 771.075867,230.774612 779.565979,229.977188 
	C792.745605,228.739304 805.907837,227.316818 819.084473,226.045685 
	C823.824890,225.588394 828.584717,225.330353 833.337219,225.002304 
	C847.924622,223.995361 862.514709,223.026840 877.099731,221.986938 
	C885.607483,221.380356 894.104919,220.631027 902.611511,220.007126 
	C921.117188,218.649857 939.625854,217.333328 958.133057,215.997040 
	C967.304077,215.334869 976.469604,214.586578 985.646301,214.017090 
	C1002.732361,212.956772 1019.823547,211.977905 1036.914795,211.005234 
	C1049.250732,210.303207 1061.585083,209.545654 1073.929199,209.028229 
	C1092.428955,208.252777 1110.932007,207.320496 1129.442017,207.069809 
	C1170.689819,206.511139 1211.942261,206.229675 1253.193726,206.060593 
	C1266.277466,206.006973 1279.368652,206.547607 1292.448364,207.032196 
	C1306.624756,207.557404 1320.810303,208.072479 1334.957642,209.075912 
	C1348.985962,210.070892 1363.008789,211.364487 1376.965942,213.081635 
	C1393.081421,215.064346 1409.161499,217.414444 1425.186523,220.036133 
	C1448.338013,223.823746 1471.570801,227.318939 1494.501831,232.194748 
	C1518.864502,237.374969 1543.087158,243.416641 1567.047852,250.220215 
	C1585.972900,255.593948 1604.587769,262.217804 1622.999756,269.186676 
	C1635.732910,274.006195 1647.919067,280.286896 1660.289673,286.043945 
	C1678.297119,294.424377 1695.138062,304.850708 1711.027222,316.667145 
	C1732.462158,332.607941 1749.977051,352.237946 1764.057983,375.011505 
	C1776.332153,394.862946 1789.639160,414.093323 1801.458862,434.203979 
	C1816.603149,459.971039 1830.599121,486.383179 1842.502441,513.880432 
	C1853.037598,538.217468 1862.241821,562.979126 1868.272705,588.810730 
	C1870.732422,599.345703 1872.609253,610.073364 1873.866089,620.816833 
	C1875.144775,631.745422 1875.938599,642.806458 1875.848877,653.800537 
	C1875.733521,667.949707 1873.140747,681.825012 1869.230103,695.493958 
	C1861.128540,723.812378 1846.566895,748.572388 1828.827026,771.796204 
	C1816.254639,788.255127 1802.180054,803.326477 1787.012207,817.267395 
	C1766.528687,836.093750 1745.069336,853.869751 1721.628540,868.966614 
	C1688.071045,890.578918 1654.465942,912.135254 1620.438721,932.993835 
	C1597.282104,947.188904 1573.491455,960.369629 1549.758789,973.599426 
	C1525.749268,986.983521 1501.455566,999.857788 1477.298462,1012.977661 
	C1458.368286,1023.258789 1439.451538,1033.564941 1420.537842,1043.876343 
	C1394.850830,1057.880371 1369.153198,1071.864868 1343.496704,1085.924561 
	C1324.934448,1096.096802 1306.431885,1106.377808 1287.393433,1116.891602 
	C1291.786133,1125.002930 1295.697876,1133.108765 1300.406128,1140.722046 
	C1308.285767,1153.463501 1316.286377,1166.165405 1324.946167,1178.380493 
	C1335.529907,1193.309204 1346.309448,1208.163452 1357.980957,1222.240112 
	C1372.643799,1239.924561 1388.078369,1256.987915 1403.594849,1273.939575 
	C1414.911865,1286.303101 1426.643677,1298.315796 1438.659790,1310.002441 
	C1450.830078,1321.838989 1463.319092,1333.379517 1476.137207,1344.509888 
	C1491.913574,1358.209106 1507.962769,1371.614868 1524.278076,1384.667358 
	C1546.984009,1402.832642 1569.553223,1421.233276 1593.089844,1438.278076 
	C1618.283813,1456.523193 1644.188477,1473.854492 1670.459106,1490.518921 
	C1684.746094,1499.581543 1700.945923,1505.025879 1717.984497,1506.948120 
	C1726.614136,1507.921753 1735.346558,1509.200195 1743.963257,1508.810303 
	C1759.344482,1508.114380 1774.520264,1505.389038 1789.327759,1500.959717 
	C1813.489502,1493.731934 1835.479004,1481.767944 1857.557861,1469.926758 
	C1874.519287,1460.829956 1892.838745,1456.832764 1912.046265,1458.089966 
	C1926.170166,1459.014771 1939.017700,1463.982788 1950.234131,1472.758179 
	C1964.558716,1483.965088 1975.658813,1497.600098 1979.167480,1515.842773 
	C1980.617798,1523.383667 1980.294800,1531.384277 1979.897949,1539.130737 
	C1979.440063,1548.066895 1978.922729,1557.177979 1976.797852,1565.811157 
	C1973.203125,1580.416382 1969.192383,1595.040161 1963.788696,1609.051514 
	C1955.139771,1631.477905 1943.036011,1652.223877 1928.958374,1671.709351 
	C1920.695801,1683.145874 1912.222046,1694.483643 1903.083618,1705.219238 
	C1892.405518,1717.763184 1881.338135,1730.044800 1869.645752,1741.639526 
	C1853.899902,1757.253540 1837.508667,1772.225708 1821.188843,1787.250000 
	C1799.504150,1807.213379 1775.979492,1824.868530 1751.342896,1840.972168 
	C1739.922852,1848.436890 1727.832397,1854.900635 1715.884521,1861.526978 
	C1699.576050,1870.572144 1682.445801,1877.712158 1664.575806,1883.128784 
	C1650.311157,1887.452637 1635.948608,1891.132568 1620.997314,1891.998901 
	C1614.914551,1892.351318 1608.831299,1892.699341 1602.745361,1892.993286 
	C1589.472046,1893.634521 1577.102051,1889.758667 1565.030396,1884.955933 
	C1529.496582,1870.819214 1497.694214,1850.011230 1466.342896,1828.585571 
	C1447.113159,1815.444214 1428.411865,1801.487061 1409.944824,1787.283325 
	C1390.850586,1772.597168 1372.223145,1757.295776 1353.584106,1742.028442 
	C1337.032837,1728.471069 1320.690552,1714.656372 1304.359253,1700.833252 
	C1292.235840,1690.571777 1280.247559,1680.149658 1268.252930,1669.737183 
	C1252.655029,1656.196899 1237.049561,1642.664307 1221.566895,1628.992920 
	C1213.289429,1621.683594 1205.209717,1614.147217 1197.135254,1606.611938 
	C1180.944580,1591.502319 1164.825684,1576.315674 1148.661865,1561.177246 
	C1144.448730,1557.231323 1140.074829,1553.452271 1135.951538,1549.416016 
	C1116.347534,1530.224731 1096.628052,1511.146362 1077.296143,1491.683716 
	C1062.119873,1476.404663 1047.291748,1460.770020 1032.603271,1445.019043 
	C1020.604980,1432.152954 1008.968384,1418.946167 997.306396,1405.770874 
	C985.787476,1392.757202 974.244690,1379.756226 963.060059,1366.457275 
	C947.207397,1347.607788 931.237427,1328.829712 916.120972,1309.396118 
	C899.688477,1288.270508 883.609375,1266.838013 871.838989,1242.534668 
	C862.101807,1222.429443 856.215759,1201.570557 858.056335,1179.083496 
	C859.697510,1159.032715 865.613220,1140.284302 876.366699,1123.142212 
	C888.072937,1104.480957 902.676880,1088.182007 919.081299,1073.761841 
	C932.826721,1061.679077 947.373047,1050.249390 962.708496,1040.291992 
	C987.638000,1024.104858 1013.369446,1009.131165 1039.024170,994.091736 
	C1052.890381,985.963135 1067.440308,979.009460 1081.430420,971.082031 
	C1103.661255,958.485168 1126.104370,946.184387 1147.677368,932.526001 
	C1171.099731,917.696777 1193.864868,901.787720 1216.447632,885.691772 
	C1227.322876,877.940247 1237.232544,868.806885 1247.375122,860.062195 
	C1256.958862,851.799438 1266.871460,843.795593 1275.583496,834.669922 
	C1293.439819,815.965942 1310.879150,796.841553 1327.949951,777.415527 
	C1345.835205,757.062683 1360.620972,734.502625 1372.382202,710.070984 
	C1380.427612,693.358704 1386.218994,675.946777 1389.148438,657.469299 
	C1393.190552,631.974854 1390.004883,607.698914 1379.661865,584.177429 
	C1374.445679,572.314880 1367.194702,561.921387 1358.184082,552.648926 
	C1344.424194,538.488953 1330.282349,524.774109 1313.547241,514.088989 
	C1298.776123,504.657867 1283.016724,497.602600 1265.507568,495.033112 
	C1264.364990,494.865387 1263.177368,494.986450 1262.010986,495.002563 
	C1238.092773,495.332489 1214.170776,495.505676 1190.257935,496.065887 
	C1177.744629,496.359070 1165.241333,497.240662 1152.744263,498.024719 
	C1138.481567,498.919495 1124.225464,499.934845 1109.976196,501.022736 
	C1098.213867,501.920746 1086.459839,502.942688 1074.712891,504.025238 
	C1069.044556,504.547577 1063.387329,505.244843 1057.758545,506.087219 
	C1056.747559,506.238525 1055.569580,507.297058 1055.026978,508.253479 
	C1045.904297,524.330444 1036.939209,540.497009 1027.799316,556.564209 
	C1015.716492,577.805176 1003.464600,598.949890 991.377319,620.188354 
	C983.505615,634.019714 975.828491,647.961670 968.008240,661.822510 
	C958.136230,679.319824 948.138489,696.746521 938.328247,714.278259 
	C932.285889,725.076416 926.438354,735.984863 920.597778,746.894287 
	C906.708557,772.837463 892.604797,798.670593 879.085083,824.805481 
	C860.155029,861.398926 841.573608,898.174255 823.054260,934.978088 
	C815.183533,950.619812 807.602051,966.418457 800.321472,982.343445 
	C786.251526,1013.118774 772.372986,1043.983032 758.636536,1074.908936 
	C748.748901,1097.169556 738.867310,1119.444824 729.623169,1141.976196 
	C718.681458,1168.645142 707.957214,1195.422607 697.985046,1222.465210 
	C682.522156,1264.397461 667.144470,1306.382080 652.922668,1348.744751 
	C641.393127,1383.087646 631.414429,1417.959473 621.138428,1452.712158 
	C614.722778,1474.409302 609.766541,1496.562012 602.710938,1518.035645 
	C599.103394,1529.014893 592.317932,1538.950073 586.754883,1549.661621 
z"/>
</svg>