<svg version="1.1" id="Layer_1" xmlns="http://www.w3.org/2000/svg" xmlns:xlink="http://www.w3.org/1999/xlink" x="0px" y="0px"
	 width="100%" viewBox="0 0 1987 1987" enable-background="new 0 0 1987 1987" xml:space="preserve">
<path fill="#FFFFFF" opacity="1.000000" stroke="none" 
	d="
M1050.000000,1988.000000 
	C700.000000,1988.000000 350.500000,1988.000000 1.000000,1988.000000 
	C1.000000,1325.666626 1.000000,663.333313 1.000000,1.000000 
	C663.333313,1.000000 1325.666626,1.000000 1988.000000,1.000000 
	C1988.000000,663.333313 1988.000000,1325.666626 1988.000000,1988.000000 
	C1675.500000,1988.000000 1363.000000,1988.000000 1050.000000,1988.000000 
M586.945557,1549.352905 
	C596.141968,1535.684448 602.962097,1520.900757 607.442078,1505.064941 
	C610.702393,1493.540405 613.534546,1481.893188 616.887268,1470.396729 
	C628.708679,1429.861694 640.399231,1389.284912 652.696777,1348.893799 
	C658.867004,1328.627686 666.047363,1308.659668 673.122498,1288.681274 
	C680.627502,1267.488770 688.191772,1246.304199 696.374939,1225.368164 
	C707.862305,1195.978516 719.773865,1166.750732 731.825378,1137.586548 
	C741.964722,1113.049561 752.352844,1088.610107 763.020142,1064.298218 
	C772.725891,1042.177612 782.804016,1020.216309 792.997620,998.314941 
	C803.071960,976.669739 813.252319,955.066956 823.828247,933.664062 
	C837.521973,905.951599 851.553711,878.404480 865.629517,850.883118 
	C876.285522,830.048157 887.024170,809.249695 898.110535,788.641846 
	C913.650940,759.754883 929.483093,731.023926 945.315918,702.295410 
	C956.126343,682.679810 967.076172,663.140015 978.098450,643.642578 
	C991.757019,619.481689 1005.615601,595.433899 1019.273560,571.272705 
	C1030.295410,551.774902 1041.190186,532.204834 1052.043457,512.612549 
	C1054.532471,508.119293 1057.716309,505.118042 1063.164062,504.960510 
	C1066.931152,504.851593 1070.685425,504.322388 1074.447510,504.005432 
	C1086.396729,502.998779 1098.341553,501.934662 1110.297974,501.021973 
	C1124.409668,499.944794 1138.526489,498.917206 1152.651001,498.027100 
	C1165.166626,497.238403 1177.688721,496.358154 1190.220825,496.066528 
	C1214.310425,495.506012 1238.409058,495.332642 1262.504028,495.002716 
	C1263.503662,494.989014 1264.520142,494.900421 1265.501099,495.040497 
	C1283.035156,497.544281 1298.795532,504.629822 1313.532349,514.099365 
	C1328.556641,523.753601 1341.550903,535.827637 1354.107300,548.474182 
	C1364.932495,559.377075 1373.908203,571.289917 1380.280273,585.414490 
	C1387.113892,600.561890 1390.045410,616.443726 1390.815063,632.732849 
	C1391.207397,641.033936 1389.917358,649.454529 1388.957397,657.771362 
	C1386.908203,675.523438 1380.879761,692.139648 1373.307373,708.156372 
	C1361.346436,733.455078 1345.977295,756.609558 1327.683228,777.774231 
	C1315.308350,792.091125 1303.188354,806.687134 1289.988647,820.216064 
	C1276.727539,833.807983 1262.442627,846.425232 1248.279541,859.104492 
	C1238.022583,868.286682 1227.692261,877.505859 1216.578369,885.585876 
	C1196.609375,900.103760 1176.367432,914.307678 1155.603882,927.653870 
	C1135.414917,940.630737 1114.612549,952.690796 1093.737061,964.550476 
	C1075.666138,974.816895 1056.823242,983.734497 1038.845947,994.153381 
	C1013.166077,1009.036377 987.601990,1024.182983 962.672302,1040.276489 
	C942.281433,1053.439819 923.065735,1068.368408 906.334412,1086.177246 
	C902.375305,1090.391357 898.141602,1094.408936 894.646179,1098.984375 
	C887.339417,1108.548584 879.730103,1117.996948 873.546997,1128.275879 
	C865.100159,1142.318115 860.484680,1157.787964 858.809265,1174.297974 
	C857.513306,1187.068848 857.458557,1199.650879 860.590759,1212.004150 
	C866.360229,1234.758179 877.480530,1254.966064 890.589111,1274.335815 
	C910.863281,1304.293823 934.088135,1331.897583 957.205444,1359.593140 
	C970.263611,1375.237305 983.818787,1390.470825 997.301453,1405.755615 
	C1008.967041,1418.980347 1020.724182,1432.129028 1032.666870,1445.103516 
	C1043.994873,1457.410156 1055.295532,1469.770386 1067.173096,1481.536987 
	C1094.327515,1508.437866 1121.723145,1535.098145 1149.228882,1561.640625 
	C1163.746704,1575.650024 1178.646118,1589.266357 1193.476807,1602.947998 
	C1203.778809,1612.452148 1214.205078,1621.823608 1224.669678,1631.149170 
	C1239.046631,1643.961548 1253.452881,1656.742310 1267.956177,1669.411133 
	C1282.429932,1682.054199 1296.929810,1694.671631 1311.617065,1707.064575 
	C1329.143677,1721.853516 1346.801514,1736.489990 1364.552734,1751.008911 
	C1379.609985,1763.323975 1394.619873,1775.722900 1410.126099,1787.456299 
	C1427.765015,1800.803345 1445.909058,1813.484253 1463.874268,1826.398315 
	C1493.478516,1847.678955 1524.283936,1866.926025 1557.602295,1881.964478 
	C1577.866577,1891.110718 1598.718262,1895.082031 1621.072632,1892.207153 
	C1635.820557,1890.310547 1650.242310,1887.514648 1664.427856,1883.221680 
	C1695.752197,1873.742188 1724.558838,1858.870483 1751.510864,1840.678589 
	C1770.798340,1827.660034 1789.464844,1813.575317 1807.416016,1798.763672 
	C1825.588135,1783.769409 1842.645752,1767.410522 1859.977051,1751.416870 
	C1867.728394,1744.263916 1875.157593,1736.732178 1882.368652,1729.031006 
	C1890.581665,1720.259521 1898.979736,1711.557495 1906.237427,1702.018555 
	C1918.343750,1686.106689 1930.035645,1669.838135 1941.097778,1653.185425 
	C1951.065674,1638.179810 1958.772827,1621.884155 1965.487305,1605.119873 
	C1974.399414,1582.868408 1979.315063,1559.748901 1980.927856,1535.932861 
	C1982.095825,1518.684570 1977.388916,1503.034790 1966.755981,1489.217041 
	C1958.505737,1478.495483 1948.474487,1469.789185 1936.245972,1464.232422 
	C1922.572144,1458.019043 1908.087646,1456.889038 1893.056152,1458.822388 
	C1877.758179,1460.790405 1863.591553,1465.782227 1850.520996,1473.369507 
	C1832.898315,1483.599243 1814.773193,1492.642700 1795.432129,1498.875732 
	C1773.284912,1506.013306 1750.720947,1510.529053 1727.076660,1508.161621 
	C1711.014282,1506.553589 1695.634399,1502.962769 1681.213867,1495.949463 
	C1657.011963,1484.179321 1634.973755,1468.820557 1613.477905,1452.815308 
	C1583.398438,1430.419312 1553.649536,1407.567505 1524.112427,1384.459473 
	C1507.730835,1371.643921 1491.856567,1358.153320 1476.147217,1344.513672 
	C1463.305664,1333.364136 1450.794922,1321.802246 1438.601929,1309.945801 
	C1426.577148,1298.252930 1414.835205,1286.235352 1403.511353,1273.864014 
	C1387.955078,1256.868896 1372.497681,1239.748901 1357.776367,1222.035278 
	C1346.229370,1208.141235 1335.405151,1193.583496 1325.102783,1178.735596 
	C1314.930664,1164.075806 1305.702881,1148.752197 1296.300903,1133.571167 
	C1293.007324,1128.253296 1290.426880,1122.493530 1287.507690,1116.910522 
	C1296.889771,1111.687378 1305.653076,1106.778564 1314.444580,1101.920776 
	C1334.342529,1090.925903 1354.226440,1079.905273 1374.167603,1068.989380 
	C1400.806763,1054.406738 1427.479248,1039.885010 1454.166992,1025.391602 
	C1474.146729,1014.541138 1494.218262,1003.859253 1514.167480,992.953552 
	C1540.379150,978.624207 1566.670166,964.428223 1592.628662,949.650391 
	C1614.340942,937.289673 1635.893555,924.602417 1657.026855,911.282349 
	C1681.332275,895.962952 1705.637939,880.537231 1728.936157,863.758911 
	C1749.206665,849.161011 1768.741577,833.359131 1787.340210,816.682678 
	C1800.941162,804.487244 1813.020508,790.452759 1824.845581,776.450500 
	C1845.055542,752.519897 1861.063354,725.953369 1869.013672,695.389282 
	C1872.478394,682.070068 1874.690796,668.247375 1875.700073,654.523132 
	C1876.514893,643.445312 1874.847412,632.157959 1873.965942,620.988525 
	C1872.514038,602.589111 1867.992065,584.761597 1862.546387,567.239380 
	C1851.591064,531.988892 1836.571777,498.458496 1819.086426,465.945679 
	C1802.842285,435.740814 1784.869019,406.634857 1766.075195,377.977203 
	C1753.341187,358.559937 1739.749512,339.950012 1721.614502,325.179169 
	C1702.529297,309.634430 1681.792358,296.770630 1659.701904,285.761353 
	C1627.065430,269.496124 1592.985718,257.261780 1557.966797,247.660538 
	C1533.761963,241.024277 1509.260254,235.353073 1484.693726,230.190872 
	C1464.965210,226.045319 1444.964478,223.158600 1425.039185,219.999512 
	C1408.933716,217.446060 1392.791504,215.069443 1376.608276,213.079315 
	C1362.777710,211.378494 1348.885010,210.069550 1334.984619,209.080994 
	C1320.818848,208.073532 1306.614258,207.558380 1292.419067,207.032349 
	C1279.329712,206.547302 1266.228882,206.007660 1253.135498,206.061172 
	C1211.873291,206.229797 1170.611694,206.611969 1129.350952,207.029877 
	C1116.253906,207.162537 1103.155029,207.524048 1090.067383,208.042374 
	C1078.369385,208.505630 1066.686279,209.339233 1054.995605,209.991470 
	C1036.878052,211.002304 1018.756592,211.947830 1000.642700,213.020905 
	C991.446045,213.565689 982.263245,214.341751 973.072571,214.990494 
	C954.027893,216.334869 934.985413,217.712753 915.935669,218.981247 
	C904.419678,219.748062 892.890259,220.311371 881.369934,221.016037 
	C877.104187,221.276978 872.844727,221.652466 868.586609,222.024307 
	C853.541199,223.338165 838.500122,224.703476 823.452209,225.988312 
	C814.769775,226.729645 806.068604,227.258743 797.391418,228.052887 
	C783.841309,229.292999 770.307068,230.706451 756.760620,231.988739 
	C748.912415,232.731659 741.045959,233.285400 733.201050,234.059647 
	C720.486206,235.314545 707.784973,236.707535 695.072754,237.989761 
	C687.725647,238.730865 680.359741,239.289932 673.017334,240.071915 
	C661.302979,241.319519 649.604919,242.719238 637.892700,243.987045 
	C630.881287,244.746017 623.842590,245.263550 616.839966,246.091263 
	C606.622253,247.299011 596.436646,248.778976 586.217590,249.973801 
	C576.454346,251.115326 566.647095,251.890076 556.893127,253.099213 
	C544.910828,254.584549 532.974121,256.434021 520.998413,257.976074 
	C509.645111,259.437958 498.242157,260.528534 486.906158,262.106445 
	C474.161835,263.880402 461.479004,266.091431 448.749298,267.976349 
	C434.551392,270.078644 420.276306,271.708466 406.133331,274.121429 
	C386.595276,277.454834 367.116852,281.164246 347.672638,285.014374 
	C326.186462,289.268829 304.600952,293.196686 283.368011,298.504272 
	C263.304535,303.519470 243.514297,309.747162 223.837753,316.159210 
	C201.332794,323.492981 181.489304,335.591125 164.972961,352.652008 
	C156.851440,361.041290 148.861664,369.669647 141.771805,378.924866 
	C122.269730,404.383209 105.151550,431.479828 91.131706,460.294708 
	C76.946053,489.450287 63.724033,519.093140 50.753147,548.816345 
	C36.707161,581.003296 23.951128,613.700989 13.769353,647.383606 
	C7.732179,667.355347 3.616819,687.398865 7.067944,708.262207 
	C9.295563,721.729004 15.373607,733.055786 26.706350,741.394348 
	C35.980663,748.218323 46.431133,750.675293 57.570755,752.136902 
	C77.604286,754.765503 96.730202,752.074524 114.909065,743.483459 
	C129.444305,736.614380 143.464615,728.622437 158.146164,722.103394 
	C184.781418,710.276550 211.603134,698.842041 238.594131,687.850586 
	C276.840729,672.275513 316.103668,659.552612 355.656250,647.753845 
	C383.404266,639.476379 411.137848,631.108154 439.092346,623.576416 
	C472.392212,614.604309 505.876587,606.301636 539.366150,598.054443 
	C563.595154,592.087830 587.951233,586.633667 612.275635,581.059814 
	C619.904846,579.311707 627.615051,577.917419 636.410278,576.133545 
	C634.931580,579.309326 634.198792,581.578247 632.934875,583.497437 
	C576.665039,668.938660 520.220703,754.265381 464.107971,839.809570 
	C444.976410,868.975891 426.688263,898.695007 407.968018,928.131775 
	C398.731201,942.656189 389.148621,956.965942 380.145081,971.632263 
	C363.766052,998.313049 347.777802,1025.233398 331.487183,1051.968872 
	C313.418030,1081.623047 294.964905,1111.045654 277.098999,1140.821045 
	C258.816925,1171.289917 240.951035,1202.010376 223.075439,1232.721069 
	C206.917435,1260.480957 190.733429,1288.231201 175.038437,1316.253174 
	C159.879639,1343.317749 145.066391,1370.584473 130.591858,1398.021118 
	C117.340576,1423.138916 104.974907,1448.688110 97.320663,1476.232056 
	C93.378105,1490.419434 92.178398,1504.822510 95.677666,1519.059326 
	C102.121422,1545.275391 117.513794,1565.805176 138.182312,1582.729736 
	C161.014130,1601.425537 187.495453,1612.395630 215.640656,1620.053345 
	C235.639542,1625.494629 255.883942,1629.422607 276.562683,1631.031738 
	C293.275085,1632.332275 309.964691,1634.290527 326.700470,1634.821533 
	C342.435669,1635.320801 358.229767,1634.603516 373.976288,1633.921631 
	C388.441010,1633.295044 402.935883,1632.515137 417.309052,1630.860962 
	C432.010925,1629.168945 446.715424,1626.958740 461.179047,1623.857422 
	C486.125397,1618.508179 510.171814,1610.422607 532.586060,1597.863281 
	C554.096375,1585.810425 572.215942,1570.061279 586.945557,1549.352905 
z"/>
<path fill="#1BB63C" opacity="1.000000" stroke="none" 
	d="
M586.736511,1549.657715 
	C572.215942,1570.061279 554.096375,1585.810425 532.586060,1597.863281 
	C510.171814,1610.422607 486.125397,1618.508179 461.179047,1623.857422 
	C446.715424,1626.958740 432.010925,1629.168945 417.309052,1630.860962 
	C402.935883,1632.515137 388.441010,1633.295044 373.976288,1633.921631 
	C358.229767,1634.603516 342.435669,1635.320801 326.700470,1634.821533 
	C309.964691,1634.290527 293.275085,1632.332275 276.562683,1631.031738 
	C255.883942,1629.422607 235.639542,1625.494629 215.640656,1620.053345 
	C187.495453,1612.395630 161.014130,1601.425537 138.182312,1582.729736 
	C117.513794,1565.805176 102.121422,1545.275391 95.677666,1519.059326 
	C92.178398,1504.822510 93.378105,1490.419434 97.320663,1476.232056 
	C104.974907,1448.688110 117.340576,1423.138916 130.591858,1398.021118 
	C145.066391,1370.584473 159.879639,1343.317749 175.038437,1316.253174 
	C190.733429,1288.231201 206.917435,1260.480957 223.075439,1232.721069 
	C240.951035,1202.010376 258.816925,1171.289917 277.098999,1140.821045 
	C294.964905,1111.045654 313.418030,1081.623047 331.487183,1051.968872 
	C347.777802,1025.233398 363.766052,998.313049 380.145081,971.632263 
	C389.148621,956.965942 398.731201,942.656189 407.968018,928.131775 
	C426.688263,898.695007 444.976410,868.975891 464.107971,839.809570 
	C520.220703,754.265381 576.665039,668.938660 632.934875,583.497437 
	C634.198792,581.578247 634.931580,579.309326 636.410278,576.133545 
	C627.615051,577.917419 619.904846,579.311707 612.275635,581.059814 
	C587.951233,586.633667 563.595154,592.087830 539.366150,598.054443 
	C505.876587,606.301636 472.392212,614.604309 439.092346,623.576416 
	C411.137848,631.108154 383.404266,639.476379 355.656250,647.753845 
	C316.103668,659.552612 276.840729,672.275513 238.594131,687.850586 
	C211.603134,698.842041 184.781418,710.276550 158.146164,722.103394 
	C143.464615,728.622437 129.444305,736.614380 114.909065,743.483459 
	C96.730202,752.074524 77.604286,754.765503 57.570755,752.136902 
	C46.431133,750.675293 35.980663,748.218323 26.706350,741.394348 
	C15.373607,733.055786 9.295563,721.729004 7.067944,708.262207 
	C3.616819,687.398865 7.732179,667.355347 13.769353,647.383606 
	C23.951128,613.700989 36.707161,581.003296 50.753147,548.816345 
	C63.724033,519.093140 76.946053,489.450287 91.131706,460.294708 
	C105.151550,431.479828 122.269730,404.383209 141.771805,378.924866 
	C148.861664,369.669647 156.851440,361.041290 164.972961,352.652008 
	C181.489304,335.591125 201.332794,323.492981 223.837753,316.159210 
	C243.514297,309.747162 263.304535,303.519470 283.368011,298.504272 
	C304.600952,293.196686 326.186462,289.268829 347.672638,285.014374 
	C367.116852,281.164246 386.595276,277.454834 406.133331,274.121429 
	C420.276306,271.708466 434.551392,270.078644 448.749298,267.976349 
	C461.479004,266.091431 474.161835,263.880402 486.906158,262.106445 
	C498.242157,260.528534 509.645111,259.437958 520.998413,257.976074 
	C532.974121,256.434021 544.910828,254.584549 556.893127,253.099213 
	C566.647095,251.890076 576.454346,251.115326 586.217590,249.973801 
	C596.436646,248.778976 606.622253,247.299011 616.839966,246.091263 
	C623.842590,245.263550 630.881287,244.746017 637.892700,243.987045 
	C649.604919,242.719238 661.302979,241.319519 673.017334,240.071915 
	C680.359741,239.289932 687.725647,238.730865 695.072754,237.989761 
	C707.784973,236.707535 720.486206,235.314545 733.201050,234.059647 
	C741.045959,233.285400 748.912415,232.731659 756.760620,231.988739 
	C770.307068,230.706451 783.841309,229.292999 797.391418,228.052887 
	C806.068604,227.258743 814.769775,226.729645 823.452209,225.988312 
	C838.500122,224.703476 853.541199,223.338165 868.586609,222.024307 
	C872.844727,221.652466 877.104187,221.276978 881.369934,221.016037 
	C892.890259,220.311371 904.419678,219.748062 915.935669,218.981247 
	C934.985413,217.712753 954.027893,216.334869 973.072571,214.990494 
	C982.263245,214.341751 991.446045,213.565689 1000.642700,213.020905 
	C1018.756592,211.947830 1036.878052,211.002304 1054.995605,209.991470 
	C1066.686279,209.339233 1078.369385,208.505630 1090.067383,208.042374 
	C1103.155029,207.524048 1116.253906,207.162537 1129.350952,207.029877 
	C1170.611694,206.611969 1211.873291,206.229797 1253.135498,206.061172 
	C1266.228882,206.007660 1279.329712,206.547302 1292.419067,207.032349 
	C1306.614258,207.558380 1320.818848,208.073532 1334.984619,209.080994 
	C1348.885010,210.069550 1362.777710,211.378494 1376.608276,213.079315 
	C1392.791504,215.069443 1408.933716,217.446060 1425.039185,219.999512 
	C1444.964478,223.158600 1464.965210,226.045319 1484.693726,230.190872 
	C1509.260254,235.353073 1533.761963,241.024277 1557.966797,247.660538 
	C1592.985718,257.261780 1627.065430,269.496124 1659.701904,285.761353 
	C1681.792358,296.770630 1702.529297,309.634430 1721.614502,325.179169 
	C1739.749512,339.950012 1753.341187,358.559937 1766.075195,377.977203 
	C1784.869019,406.634857 1802.842285,435.740814 1819.086426,465.945679 
	C1836.571777,498.458496 1851.591064,531.988892 1862.546387,567.239380 
	C1867.992065,584.761597 1872.514038,602.589111 1873.965942,620.988525 
	C1874.847412,632.157959 1876.514893,643.445312 1875.700073,654.523132 
	C1874.690796,668.247375 1872.478394,682.070068 1869.013672,695.389282 
	C1861.063354,725.953369 1845.055542,752.519897 1824.845581,776.450500 
	C1813.020508,790.452759 1800.941162,804.487244 1787.340210,816.682678 
	C1768.741577,833.359131 1749.206665,849.161011 1728.936157,863.758911 
	C1705.637939,880.537231 1681.332275,895.962952 1657.026855,911.282349 
	C1635.893555,924.602417 1614.340942,937.289673 1592.628662,949.650391 
	C1566.670166,964.428223 1540.379150,978.624207 1514.167480,992.953552 
	C1494.218262,1003.859253 1474.146729,1014.541138 1454.166992,1025.391602 
	C1427.479248,1039.885010 1400.806763,1054.406738 1374.167603,1068.989380 
	C1354.226440,1079.905273 1334.342529,1090.925903 1314.444580,1101.920776 
	C1305.653076,1106.778564 1296.889771,1111.687378 1287.507690,1116.910522 
	C1290.426880,1122.493530 1293.007324,1128.253296 1296.300903,1133.571167 
	C1305.702881,1148.752197 1314.930664,1164.075806 1325.102783,1178.735596 
	C1335.405151,1193.583496 1346.229370,1208.141235 1357.776367,1222.035278 
	C1372.497681,1239.748901 1387.955078,1256.868896 1403.511353,1273.864014 
	C1414.835205,1286.235352 1426.577148,1298.252930 1438.601929,1309.945801 
	C1450.794922,1321.802246 1463.305664,1333.364136 1476.147217,1344.513672 
	C1491.856567,1358.153320 1507.730835,1371.643921 1524.112427,1384.459473 
	C1553.649536,1407.567505 1583.398438,1430.419312 1613.477905,1452.815308 
	C1634.973755,1468.820557 1657.011963,1484.179321 1681.213867,1495.949463 
	C1695.634399,1502.962769 1711.014282,1506.553589 1727.076660,1508.161621 
	C1750.720947,1510.529053 1773.284912,1506.013306 1795.432129,1498.875732 
	C1814.773193,1492.642700 1832.898315,1483.599243 1850.520996,1473.369507 
	C1863.591553,1465.782227 1877.758179,1460.790405 1893.056152,1458.822388 
	C1908.087646,1456.889038 1922.572144,1458.019043 1936.245972,1464.232422 
	C1948.474487,1469.789185 1958.505737,1478.495483 1966.755981,1489.217041 
	C1977.388916,1503.034790 1982.095825,1518.684570 1980.927856,1535.932861 
	C1979.315063,1559.748901 1974.399414,1582.868408 1965.487305,1605.119873 
	C1958.772827,1621.884155 1951.065674,1638.179810 1941.097778,1653.185425 
	C1930.035645,1669.838135 1918.343750,1686.106689 1906.237427,1702.018555 
	C1898.979736,1711.557495 1890.581665,1720.259521 1882.368652,1729.031006 
	C1875.157593,1736.732178 1867.728394,1744.263916 1859.977051,1751.416870 
	C1842.645752,1767.410522 1825.588135,1783.769409 1807.416016,1798.763672 
	C1789.464844,1813.575317 1770.798340,1827.660034 1751.510864,1840.678589 
	C1724.558838,1858.870483 1695.752197,1873.742188 1664.427856,1883.221680 
	C1650.242310,1887.514648 1635.820557,1890.310547 1621.072632,1892.207153 
	C1598.718262,1895.082031 1577.866577,1891.110718 1557.602295,1881.964478 
	C1524.283936,1866.926025 1493.478516,1847.678955 1463.874268,1826.398315 
	C1445.909058,1813.484253 1427.765015,1800.803345 1410.126099,1787.456299 
	C1394.619873,1775.722900 1379.609985,1763.323975 1364.552734,1751.008911 
	C1346.801514,1736.489990 1329.143677,1721.853516 1311.617065,1707.064575 
	C1296.929810,1694.671631 1282.429932,1682.054199 1267.956177,1669.411133 
	C1253.452881,1656.742310 1239.046631,1643.961548 1224.669678,1631.149170 
	C1214.205078,1621.823608 1203.778809,1612.452148 1193.476807,1602.947998 
	C1178.646118,1589.266357 1163.746704,1575.650024 1149.228882,1561.640625 
	C1121.723145,1535.098145 1094.327515,1508.437866 1067.173096,1481.536987 
	C1055.295532,1469.770386 1043.994873,1457.410156 1032.666870,1445.103516 
	C1020.724182,1432.129028 1008.967041,1418.980347 997.301453,1405.755615 
	C983.818787,1390.470825 970.263611,1375.237305 957.205444,1359.593140 
	C934.088135,1331.897583 910.863281,1304.293823 890.589111,1274.335815 
	C877.480530,1254.966064 866.360229,1234.758179 860.590759,1212.004150 
	C857.458557,1199.650879 857.513306,1187.068848 858.809265,1174.297974 
	C860.484680,1157.787964 865.100159,1142.318115 873.546997,1128.275879 
	C879.730103,1117.996948 887.339417,1108.548584 894.646179,1098.984375 
	C898.141602,1094.408936 902.375305,1090.391357 906.334412,1086.177246 
	C923.065735,1068.368408 942.281433,1053.439819 962.672302,1040.276489 
	C987.601990,1024.182983 1013.166077,1009.036377 1038.845947,994.153381 
	C1056.823242,983.734497 1075.666138,974.816895 1093.737061,964.550476 
	C1114.612549,952.690796 1135.414917,940.630737 1155.603882,927.653870 
	C1176.367432,914.307678 1196.609375,900.103760 1216.578369,885.585876 
	C1227.692261,877.505859 1238.022583,868.286682 1248.279541,859.104492 
	C1262.442627,846.425232 1276.727539,833.807983 1289.988647,820.216064 
	C1303.188354,806.687134 1315.308350,792.091125 1327.683228,777.774231 
	C1345.977295,756.609558 1361.346436,733.455078 1373.307373,708.156372 
	C1380.879761,692.139648 1386.908203,675.523438 1388.957397,657.771362 
	C1389.917358,649.454529 1391.207397,641.033936 1390.815063,632.732849 
	C1390.045410,616.443726 1387.113892,600.561890 1380.280273,585.414490 
	C1373.908203,571.289917 1364.932495,559.377075 1354.107300,548.474182 
	C1341.550903,535.827637 1328.556641,523.753601 1313.532349,514.099365 
	C1298.795532,504.629822 1283.035156,497.544281 1265.501099,495.040497 
	C1264.520142,494.900421 1263.503662,494.989014 1262.504028,495.002716 
	C1238.409058,495.332642 1214.310425,495.506012 1190.220825,496.066528 
	C1177.688721,496.358154 1165.166626,497.238403 1152.651001,498.027100 
	C1138.526489,498.917206 1124.409668,499.944794 1110.297974,501.021973 
	C1098.341553,501.934662 1086.396729,502.998779 1074.447510,504.005432 
	C1070.685425,504.322388 1066.931152,504.851593 1063.164062,504.960510 
	C1057.716309,505.118042 1054.532471,508.119293 1052.043457,512.612549 
	C1041.190186,532.204834 1030.295410,551.774902 1019.273560,571.272705 
	C1005.615601,595.433899 991.757019,619.481689 978.098450,643.642578 
	C967.076172,663.140015 956.126343,682.679810 945.315918,702.295410 
	C929.483093,731.023926 913.650940,759.754883 898.110535,788.641846 
	C887.024170,809.249695 876.285522,830.048157 865.629517,850.883118 
	C851.553711,878.404480 837.521973,905.951599 823.828247,933.664062 
	C813.252319,955.066956 803.071960,976.669739 792.997620,998.314941 
	C782.804016,1020.216309 772.725891,1042.177612 763.020142,1064.298218 
	C752.352844,1088.610107 741.964722,1113.049561 731.825378,1137.586548 
	C719.773865,1166.750732 707.862305,1195.978516 696.374939,1225.368164 
	C688.191772,1246.304199 680.627502,1267.488770 673.122498,1288.681274 
	C666.047363,1308.659668 658.867004,1328.627686 652.696777,1348.893799 
	C640.399231,1389.284912 628.708679,1429.861694 616.887268,1470.396729 
	C613.534546,1481.893188 610.702393,1493.540405 607.442078,1505.064941 
	C602.962097,1520.900757 596.141968,1535.684448 586.736511,1549.657715 
z"/>
</svg>